<svg xmlns="http://www.w3.org/2000/svg" version="1.1" xmlns:xlink="http://www.w3.org/1999/xlink" xmlns:svgjs="http://svgjs.com/svgjs" width="2560" height="1480" preserveAspectRatio="none" viewBox="0 0 2560 1480"><g mask="url(&quot;#SvgjsMask1289&quot;)" fill="none"><rect width="2560" height="1480" x="0" y="0" fill="rgba(45, 31, 64, 1)"></rect><g mask="url(&quot;#SvgjsMask1290&quot;)"><path d="M55.5 758.5L92.5 795.5L129.5 795.5M92.5 721.5L129.5 758.5L166.5 758.5L203.5 758.5L240.5 758.5M277.5 684.5L314.5 721.5L351.5 721.5L388.5 721.5L425.5 721.5M-18.5 758.5L18.5 758.5L55.5 758.5L92.5 721.5L129.5 721.5L166.5 684.5L203.5 684.5L240.5 684.5L277.5 684.5L314.5 684.5" stroke="rgba(115, 45, 77, 1)" stroke-width="6.17"></path><path d="M305.25 684.5 a9.25 9.25 0 1 0 18.5 0 a9.25 9.25 0 1 0 -18.5 0zM120.25 795.5 a9.25 9.25 0 1 0 18.5 0 a9.25 9.25 0 1 0 -18.5 0zM231.25 758.5 a9.25 9.25 0 1 0 18.5 0 a9.25 9.25 0 1 0 -18.5 0zM416.25 721.5 a9.25 9.25 0 1 0 18.5 0 a9.25 9.25 0 1 0 -18.5 0z" fill="rgba(115, 45, 77, 1)"></path><path d="M277.5 647.5L314.5 610.5L351.5 610.5L388.5 647.5L425.5 647.5M203.5 647.5L240.5 610.5M-18.5 721.5L18.5 721.5L55.5 721.5L92.5 684.5L129.5 684.5L166.5 647.5L203.5 647.5L240.5 647.5L277.5 647.5L314.5 647.5" stroke="rgba(166, 68, 86, 1)" stroke-width="6.17"></path><path d="M305.25 647.5 a9.25 9.25 0 1 0 18.5 0 a9.25 9.25 0 1 0 -18.5 0zM416.25 647.5 a9.25 9.25 0 1 0 18.5 0 a9.25 9.25 0 1 0 -18.5 0zM231.25 610.5 a9.25 9.25 0 1 0 18.5 0 a9.25 9.25 0 1 0 -18.5 0z" fill="rgba(166, 68, 86, 1)"></path><path d="M277.5 869.5L314.5 869.5L351.5 869.5M240.5 869.5L277.5 832.5L314.5 795.5L351.5 795.5L388.5 795.5M425.5 832.5L462.5 795.5M388.5 832.5L425.5 869.5M-18.5 795.5L18.5 795.5L55.5 795.5L92.5 832.5L129.5 832.5L166.5 832.5L203.5 869.5L240.5 869.5L277.5 869.5L314.5 832.5L351.5 832.5L388.5 832.5L425.5 832.5L462.5 832.5L499.5 832.5L536.5 832.5L573.5 832.5" stroke="rgba(115, 45, 77, 1)" stroke-width="6.17"></path><path d="M564.25 832.5 a9.25 9.25 0 1 0 18.5 0 a9.25 9.25 0 1 0 -18.5 0zM342.25 869.5 a9.25 9.25 0 1 0 18.5 0 a9.25 9.25 0 1 0 -18.5 0zM379.25 795.5 a9.25 9.25 0 1 0 18.5 0 a9.25 9.25 0 1 0 -18.5 0zM453.25 795.5 a9.25 9.25 0 1 0 18.5 0 a9.25 9.25 0 1 0 -18.5 0zM416.25 869.5 a9.25 9.25 0 1 0 18.5 0 a9.25 9.25 0 1 0 -18.5 0z" fill="rgba(115, 45, 77, 1)"></path><path d="M462.5 573.5L499.5 610.5M388.5 610.5L425.5 573.5M1646.5 647.5L1683.5 684.5L1720.5 684.5L1757.5 684.5L1794.5 684.5L1831.5 684.5M1276.5 647.5L1313.5 684.5L1350.5 684.5L1387.5 684.5L1424.5 684.5L1461.5 721.5L1498.5 721.5M1313.5 647.5L1350.5 610.5L1387.5 610.5M832.5 536.5L869.5 573.5L906.5 573.5L943.5 610.5L980.5 610.5L1017.5 610.5L1054.5 610.5L1091.5 647.5L1128.5 647.5M573.5 573.5L610.5 610.5L647.5 610.5L684.5 610.5L721.5 647.5M795.5 536.5L832.5 573.5L869.5 610.5L906.5 610.5L943.5 647.5M1535.5 647.5L1572.5 610.5L1609.5 610.5M166.5 610.5L203.5 610.5M721.5 536.5L758.5 573.5M-18.5 684.5L18.5 684.5L55.5 684.5L92.5 647.5L129.5 647.5L166.5 610.5L203.5 573.5L240.5 573.5L277.5 573.5L314.5 573.5L351.5 573.5L388.5 610.5L425.5 610.5L462.5 573.5L499.5 573.5L536.5 573.5L573.5 573.5L610.5 573.5L647.5 573.5L684.5 536.5L721.5 536.5L758.5 536.5L795.5 536.5L832.5 536.5L869.5 536.5L906.5 536.5L943.5 573.5L980.5 573.5L1017.5 573.5L1054.5 573.5L1091.5 610.5L1128.5 610.5L1165.5 647.5L1202.5 647.5L1239.5 647.5L1276.5 647.5L1313.5 647.5L1350.5 647.5L1387.5 647.5L1424.5 647.5L1461.5 647.5L1498.5 647.5L1535.5 647.5L1572.5 647.5L1609.5 647.5L1646.5 647.5L1683.5 647.5" stroke="rgba(166, 68, 86, 1)" stroke-width="6.17"></path><path d="M1674.25 647.5 a9.25 9.25 0 1 0 18.5 0 a9.25 9.25 0 1 0 -18.5 0zM490.25 610.5 a9.25 9.25 0 1 0 18.5 0 a9.25 9.25 0 1 0 -18.5 0zM416.25 573.5 a9.25 9.25 0 1 0 18.5 0 a9.25 9.25 0 1 0 -18.5 0zM1822.25 684.5 a9.25 9.25 0 1 0 18.5 0 a9.25 9.25 0 1 0 -18.5 0zM1489.25 721.5 a9.25 9.25 0 1 0 18.5 0 a9.25 9.25 0 1 0 -18.5 0zM1378.25 610.5 a9.25 9.25 0 1 0 18.5 0 a9.25 9.25 0 1 0 -18.5 0zM1119.25 647.5 a9.25 9.25 0 1 0 18.5 0 a9.25 9.25 0 1 0 -18.5 0zM712.25 647.5 a9.25 9.25 0 1 0 18.5 0 a9.25 9.25 0 1 0 -18.5 0zM934.25 647.5 a9.25 9.25 0 1 0 18.5 0 a9.25 9.25 0 1 0 -18.5 0zM1600.25 610.5 a9.25 9.25 0 1 0 18.5 0 a9.25 9.25 0 1 0 -18.5 0zM194.25 610.5 a9.25 9.25 0 1 0 18.5 0 a9.25 9.25 0 1 0 -18.5 0zM749.25 573.5 a9.25 9.25 0 1 0 18.5 0 a9.25 9.25 0 1 0 -18.5 0z" fill="rgba(166, 68, 86, 1)"></path><path d="M684.5 980.5L721.5 943.5M758.5 980.5L795.5 943.5L832.5 906.5L869.5 906.5M536.5 943.5L573.5 906.5L610.5 906.5L647.5 906.5M943.5 1017.5L980.5 980.5L1017.5 980.5M314.5 906.5L351.5 906.5L388.5 906.5M462.5 943.5L499.5 906.5L536.5 906.5M906.5 1017.5L943.5 980.5L980.5 943.5M-18.5 832.5L18.5 832.5L55.5 832.5L92.5 869.5L129.5 869.5L166.5 869.5L203.5 906.5L240.5 906.5L277.5 906.5L314.5 906.5L351.5 943.5L388.5 943.5L425.5 943.5L462.5 943.5L499.5 943.5L536.5 943.5L573.5 943.5L610.5 980.5L647.5 980.5L684.5 980.5L721.5 980.5L758.5 980.5L795.5 980.5L832.5 980.5L869.5 1017.5L906.5 1017.5L943.5 1017.5L980.5 1017.5" stroke="rgba(166, 68, 86, 1)" stroke-width="6.17"></path><path d="M971.25 1017.5 a9.25 9.25 0 1 0 18.5 0 a9.25 9.25 0 1 0 -18.5 0zM712.25 943.5 a9.25 9.25 0 1 0 18.5 0 a9.25 9.25 0 1 0 -18.5 0zM860.25 906.5 a9.25 9.25 0 1 0 18.5 0 a9.25 9.25 0 1 0 -18.5 0zM638.25 906.5 a9.25 9.25 0 1 0 18.5 0 a9.25 9.25 0 1 0 -18.5 0zM1008.25 980.5 a9.25 9.25 0 1 0 18.5 0 a9.25 9.25 0 1 0 -18.5 0zM379.25 906.5 a9.25 9.25 0 1 0 18.5 0 a9.25 9.25 0 1 0 -18.5 0zM527.25 906.5 a9.25 9.25 0 1 0 18.5 0 a9.25 9.25 0 1 0 -18.5 0zM971.25 943.5 a9.25 9.25 0 1 0 18.5 0 a9.25 9.25 0 1 0 -18.5 0z" fill="rgba(166, 68, 86, 1)"></path><path d="M536.5 536.5L573.5 499.5M906.5 499.5L943.5 499.5L980.5 499.5L1017.5 499.5L1054.5 499.5L1091.5 499.5M1239.5 536.5L1276.5 499.5L1313.5 499.5L1350.5 499.5L1387.5 499.5M795.5 499.5L832.5 462.5L869.5 462.5M721.5 499.5L758.5 462.5L795.5 462.5L832.5 425.5L869.5 425.5M499.5 536.5L536.5 499.5M351.5 536.5L388.5 499.5L425.5 499.5L462.5 499.5L499.5 499.5M684.5 499.5L721.5 462.5L758.5 425.5L795.5 425.5M1202.5 536.5L1239.5 573.5L1276.5 573.5L1313.5 573.5L1350.5 573.5L1387.5 573.5L1424.5 573.5L1461.5 573.5L1498.5 573.5L1535.5 573.5L1572.5 573.5M-18.5 647.5L18.5 647.5L55.5 647.5L92.5 610.5L129.5 610.5L166.5 573.5L203.5 536.5L240.5 536.5L277.5 536.5L314.5 536.5L351.5 536.5L388.5 536.5L425.5 536.5L462.5 536.5L499.5 536.5L536.5 536.5L573.5 536.5L610.5 536.5L647.5 536.5L684.5 499.5L721.5 499.5L758.5 499.5L795.5 499.5L832.5 499.5L869.5 499.5L906.5 499.5L943.5 536.5L980.5 536.5L1017.5 536.5L1054.5 536.5L1091.5 536.5L1128.5 536.5L1165.5 536.5L1202.5 536.5L1239.5 536.5L1276.5 536.5" stroke="rgba(115, 45, 77, 1)" stroke-width="6.17"></path><path d="M1267.25 536.5 a9.25 9.25 0 1 0 18.5 0 a9.25 9.25 0 1 0 -18.5 0zM564.25 499.5 a9.25 9.25 0 1 0 18.5 0 a9.25 9.25 0 1 0 -18.5 0zM1082.25 499.5 a9.25 9.25 0 1 0 18.5 0 a9.25 9.25 0 1 0 -18.5 0zM1378.25 499.5 a9.25 9.25 0 1 0 18.5 0 a9.25 9.25 0 1 0 -18.5 0zM860.25 462.5 a9.25 9.25 0 1 0 18.5 0 a9.25 9.25 0 1 0 -18.5 0zM860.25 425.5 a9.25 9.25 0 1 0 18.5 0 a9.25 9.25 0 1 0 -18.5 0zM527.25 499.5 a9.25 9.25 0 1 0 18.5 0 a9.25 9.25 0 1 0 -18.5 0zM490.25 499.5 a9.25 9.25 0 1 0 18.5 0 a9.25 9.25 0 1 0 -18.5 0zM786.25 425.5 a9.25 9.25 0 1 0 18.5 0 a9.25 9.25 0 1 0 -18.5 0zM1563.25 573.5 a9.25 9.25 0 1 0 18.5 0 a9.25 9.25 0 1 0 -18.5 0z" fill="rgba(115, 45, 77, 1)"></path><path d="M129.5 906.5L166.5 943.5L203.5 943.5L240.5 943.5M-18.5 869.5L18.5 869.5L55.5 869.5L92.5 906.5L129.5 906.5L166.5 906.5" stroke="rgba(166, 68, 86, 1)" stroke-width="6.17"></path><path d="M157.25 906.5 a9.25 9.25 0 1 0 18.5 0 a9.25 9.25 0 1 0 -18.5 0zM231.25 943.5 a9.25 9.25 0 1 0 18.5 0 a9.25 9.25 0 1 0 -18.5 0z" fill="rgba(166, 68, 86, 1)"></path><path d="M240.5 499.5L277.5 462.5M277.5 499.5L314.5 499.5L351.5 499.5M499.5 462.5L536.5 425.5L573.5 425.5L610.5 425.5M388.5 462.5L425.5 425.5L462.5 425.5L499.5 425.5M-18.5 610.5L18.5 610.5L55.5 610.5L92.5 573.5L129.5 573.5L166.5 536.5L203.5 499.5L240.5 499.5L277.5 499.5L314.5 462.5L351.5 462.5L388.5 462.5L425.5 462.5L462.5 462.5L499.5 462.5L536.5 462.5L573.5 462.5L610.5 462.5L647.5 462.5" stroke="rgba(166, 68, 86, 1)" stroke-width="6.17"></path><path d="M638.25 462.5 a9.25 9.25 0 1 0 18.5 0 a9.25 9.25 0 1 0 -18.5 0zM268.25 462.5 a9.25 9.25 0 1 0 18.5 0 a9.25 9.25 0 1 0 -18.5 0zM342.25 499.5 a9.25 9.25 0 1 0 18.5 0 a9.25 9.25 0 1 0 -18.5 0zM601.25 425.5 a9.25 9.25 0 1 0 18.5 0 a9.25 9.25 0 1 0 -18.5 0zM490.25 425.5 a9.25 9.25 0 1 0 18.5 0 a9.25 9.25 0 1 0 -18.5 0z" fill="rgba(166, 68, 86, 1)"></path><path d="M1424.5 1054.5L1461.5 1091.5L1498.5 1091.5L1535.5 1091.5L1572.5 1091.5L1609.5 1128.5L1646.5 1128.5L1683.5 1128.5M425.5 980.5L462.5 1017.5L499.5 1017.5M388.5 980.5L425.5 1017.5M1128.5 1054.5L1165.5 1091.5L1202.5 1128.5L1239.5 1128.5L1276.5 1165.5L1313.5 1165.5L1350.5 1165.5L1387.5 1165.5L1424.5 1165.5L1461.5 1165.5L1498.5 1165.5L1535.5 1165.5L1572.5 1165.5L1609.5 1165.5M1461.5 1054.5L1498.5 1017.5L1535.5 1017.5L1572.5 1017.5L1609.5 1017.5M1054.5 1017.5L1091.5 1054.5M1091.5 1017.5L1128.5 1017.5M92.5 943.5L129.5 943.5M795.5 1017.5L832.5 1054.5L869.5 1091.5L906.5 1091.5L943.5 1091.5L980.5 1091.5L1017.5 1091.5L1054.5 1091.5L1091.5 1091.5L1128.5 1091.5L1165.5 1128.5M980.5 1054.5L1017.5 1054.5L1054.5 1054.5M1239.5 1091.5L1276.5 1054.5L1313.5 1054.5L1350.5 1017.5L1387.5 1017.5L1424.5 1017.5L1461.5 1017.5L1498.5 980.5L1535.5 980.5M-18.5 906.5L18.5 906.5L55.5 906.5L92.5 943.5L129.5 980.5L166.5 980.5L203.5 980.5L240.5 980.5L277.5 980.5L314.5 980.5L351.5 980.5L388.5 980.5L425.5 980.5L462.5 980.5L499.5 980.5L536.5 980.5L573.5 980.5L610.5 1017.5L647.5 1017.5L684.5 1017.5L721.5 1017.5L758.5 1017.5L795.5 1017.5L832.5 1017.5L869.5 1054.5L906.5 1054.5L943.5 1054.5L980.5 1054.5L1017.5 1017.5L1054.5 1017.5L1091.5 1017.5L1128.5 1054.5L1165.5 1054.5L1202.5 1091.5L1239.5 1091.5L1276.5 1091.5L1313.5 1091.5L1350.5 1054.5L1387.5 1054.5L1424.5 1054.5L1461.5 1054.5L1498.5 1054.5L1535.5 1054.5L1572.5 1054.5" stroke="rgba(115, 45, 77, 1)" stroke-width="6.17"></path><path d="M1563.25 1054.5 a9.25 9.25 0 1 0 18.5 0 a9.25 9.25 0 1 0 -18.5 0zM1674.25 1128.5 a9.25 9.25 0 1 0 18.5 0 a9.25 9.25 0 1 0 -18.5 0zM490.25 1017.5 a9.25 9.25 0 1 0 18.5 0 a9.25 9.25 0 1 0 -18.5 0zM416.25 1017.5 a9.25 9.25 0 1 0 18.5 0 a9.25 9.25 0 1 0 -18.5 0zM1600.25 1165.5 a9.25 9.25 0 1 0 18.5 0 a9.25 9.25 0 1 0 -18.5 0zM1600.25 1017.5 a9.25 9.25 0 1 0 18.5 0 a9.25 9.25 0 1 0 -18.5 0zM1082.25 1054.5 a9.25 9.25 0 1 0 18.5 0 a9.25 9.25 0 1 0 -18.5 0zM1119.25 1017.5 a9.25 9.25 0 1 0 18.5 0 a9.25 9.25 0 1 0 -18.5 0zM120.25 943.5 a9.25 9.25 0 1 0 18.5 0 a9.25 9.25 0 1 0 -18.5 0zM1156.25 1128.5 a9.25 9.25 0 1 0 18.5 0 a9.25 9.25 0 1 0 -18.5 0zM1045.25 1054.5 a9.25 9.25 0 1 0 18.5 0 a9.25 9.25 0 1 0 -18.5 0zM1526.25 980.5 a9.25 9.25 0 1 0 18.5 0 a9.25 9.25 0 1 0 -18.5 0z" fill="rgba(115, 45, 77, 1)"></path><path d="M1683.5 462.5L1720.5 499.5L1757.5 499.5L1794.5 499.5L1831.5 499.5M1387.5 388.5L1424.5 388.5L1461.5 388.5L1498.5 388.5L1535.5 388.5M536.5 388.5L573.5 351.5L610.5 351.5L647.5 351.5M1646.5 462.5L1683.5 499.5L1720.5 536.5L1757.5 536.5L1794.5 536.5L1831.5 536.5M1128.5 351.5L1165.5 351.5L1202.5 351.5L1239.5 351.5L1276.5 351.5L1313.5 351.5L1350.5 351.5L1387.5 351.5L1424.5 351.5L1461.5 351.5L1498.5 351.5L1535.5 351.5M1239.5 388.5L1276.5 425.5M351.5 388.5L388.5 425.5M1424.5 425.5L1461.5 462.5M1165.5 388.5L1202.5 425.5L1239.5 425.5L1276.5 462.5L1313.5 462.5L1350.5 462.5L1387.5 462.5L1424.5 462.5L1461.5 499.5L1498.5 536.5L1535.5 536.5L1572.5 536.5L1609.5 499.5M203.5 462.5L240.5 462.5M1609.5 462.5L1646.5 425.5L1683.5 425.5L1720.5 425.5M1498.5 425.5L1535.5 425.5L1572.5 425.5M-18.5 573.5L18.5 573.5L55.5 573.5L92.5 536.5L129.5 536.5L166.5 499.5L203.5 462.5L240.5 425.5L277.5 425.5L314.5 425.5L351.5 388.5L388.5 388.5L425.5 388.5L462.5 388.5L499.5 388.5L536.5 388.5L573.5 388.5L610.5 388.5L647.5 388.5L684.5 388.5L721.5 388.5L758.5 388.5L795.5 388.5L832.5 388.5L869.5 388.5L906.5 388.5L943.5 388.5L980.5 351.5L1017.5 351.5L1054.5 351.5L1091.5 351.5L1128.5 351.5L1165.5 388.5L1202.5 388.5L1239.5 388.5L1276.5 388.5L1313.5 388.5L1350.5 388.5L1387.5 388.5L1424.5 425.5L1461.5 425.5L1498.5 425.5L1535.5 462.5L1572.5 462.5L1609.5 462.5L1646.5 462.5L1683.5 462.5L1720.5 462.5" stroke="rgba(166, 68, 86, 1)" stroke-width="6.17"></path><path d="M1711.25 462.5 a9.25 9.25 0 1 0 18.5 0 a9.25 9.25 0 1 0 -18.5 0zM1822.25 499.5 a9.25 9.25 0 1 0 18.5 0 a9.25 9.25 0 1 0 -18.5 0zM1526.25 388.5 a9.25 9.25 0 1 0 18.5 0 a9.25 9.25 0 1 0 -18.5 0zM638.25 351.5 a9.25 9.25 0 1 0 18.5 0 a9.25 9.25 0 1 0 -18.5 0zM1822.25 536.5 a9.25 9.25 0 1 0 18.5 0 a9.25 9.25 0 1 0 -18.5 0zM1526.25 351.5 a9.25 9.25 0 1 0 18.5 0 a9.25 9.25 0 1 0 -18.5 0zM1267.25 425.5 a9.25 9.25 0 1 0 18.5 0 a9.25 9.25 0 1 0 -18.5 0zM379.25 425.5 a9.25 9.25 0 1 0 18.5 0 a9.25 9.25 0 1 0 -18.5 0zM1452.25 462.5 a9.25 9.25 0 1 0 18.5 0 a9.25 9.25 0 1 0 -18.5 0zM1600.25 499.5 a9.25 9.25 0 1 0 18.5 0 a9.25 9.25 0 1 0 -18.5 0zM231.25 462.5 a9.25 9.25 0 1 0 18.5 0 a9.25 9.25 0 1 0 -18.5 0zM1711.25 425.5 a9.25 9.25 0 1 0 18.5 0 a9.25 9.25 0 1 0 -18.5 0zM1563.25 425.5 a9.25 9.25 0 1 0 18.5 0 a9.25 9.25 0 1 0 -18.5 0z" fill="rgba(166, 68, 86, 1)"></path><path d="M-18.5 943.5L18.5 980.5L55.5 1017.5L92.5 1017.5L129.5 1017.5" stroke="rgba(166, 68, 86, 1)" stroke-width="6.17"></path><path d="M120.25 1017.5 a9.25 9.25 0 1 0 18.5 0 a9.25 9.25 0 1 0 -18.5 0z" fill="rgba(166, 68, 86, 1)"></path><path d="M499.5 314.5L536.5 351.5M832.5 351.5L869.5 314.5L906.5 314.5L943.5 314.5L980.5 277.5L1017.5 277.5L1054.5 240.5M462.5 314.5L499.5 351.5M795.5 351.5L832.5 314.5L869.5 277.5L906.5 277.5M425.5 314.5L462.5 351.5M721.5 351.5L758.5 314.5M388.5 314.5L425.5 351.5M-18.5 536.5L18.5 536.5L55.5 536.5L92.5 499.5L129.5 499.5L166.5 462.5L203.5 425.5L240.5 388.5L277.5 388.5L314.5 388.5L351.5 351.5L388.5 314.5L425.5 314.5L462.5 314.5L499.5 314.5L536.5 314.5L573.5 314.5L610.5 314.5L647.5 314.5L684.5 351.5L721.5 351.5L758.5 351.5L795.5 351.5L832.5 351.5L869.5 351.5L906.5 351.5L943.5 351.5L980.5 314.5" stroke="rgba(115, 45, 77, 1)" stroke-width="6.17"></path><path d="M971.25 314.5 a9.25 9.25 0 1 0 18.5 0 a9.25 9.25 0 1 0 -18.5 0zM527.25 351.5 a9.25 9.25 0 1 0 18.5 0 a9.25 9.25 0 1 0 -18.5 0zM1045.25 240.5 a9.25 9.25 0 1 0 18.5 0 a9.25 9.25 0 1 0 -18.5 0zM490.25 351.5 a9.25 9.25 0 1 0 18.5 0 a9.25 9.25 0 1 0 -18.5 0zM897.25 277.5 a9.25 9.25 0 1 0 18.5 0 a9.25 9.25 0 1 0 -18.5 0zM453.25 351.5 a9.25 9.25 0 1 0 18.5 0 a9.25 9.25 0 1 0 -18.5 0zM749.25 314.5 a9.25 9.25 0 1 0 18.5 0 a9.25 9.25 0 1 0 -18.5 0zM416.25 351.5 a9.25 9.25 0 1 0 18.5 0 a9.25 9.25 0 1 0 -18.5 0z" fill="rgba(115, 45, 77, 1)"></path><path d="M129.5 1054.5L166.5 1054.5M-18.5 980.5L18.5 1017.5L55.5 1054.5L92.5 1054.5L129.5 1054.5L166.5 1017.5L203.5 1017.5L240.5 1017.5L277.5 1017.5" stroke="rgba(166, 68, 86, 1)" stroke-width="6.17"></path><path d="M268.25 1017.5 a9.25 9.25 0 1 0 18.5 0 a9.25 9.25 0 1 0 -18.5 0zM157.25 1054.5 a9.25 9.25 0 1 0 18.5 0 a9.25 9.25 0 1 0 -18.5 0z" fill="rgba(166, 68, 86, 1)"></path><path d="M-18.5 499.5L18.5 499.5L55.5 499.5L92.5 462.5" stroke="rgba(115, 45, 77, 1)" stroke-width="6.17"></path><path d="M83.25 462.5 a9.25 9.25 0 1 0 18.5 0 a9.25 9.25 0 1 0 -18.5 0z" fill="rgba(115, 45, 77, 1)"></path><path d="M314.5 1054.5L351.5 1091.5M166.5 1091.5L203.5 1128.5L240.5 1128.5M351.5 1054.5L388.5 1017.5M-18.5 1017.5L18.5 1054.5L55.5 1091.5L92.5 1091.5L129.5 1091.5L166.5 1091.5L203.5 1091.5L240.5 1054.5L277.5 1054.5L314.5 1054.5L351.5 1054.5L388.5 1054.5L425.5 1054.5" stroke="rgba(115, 45, 77, 1)" stroke-width="6.17"></path><path d="M416.25 1054.5 a9.25 9.25 0 1 0 18.5 0 a9.25 9.25 0 1 0 -18.5 0zM342.25 1091.5 a9.25 9.25 0 1 0 18.5 0 a9.25 9.25 0 1 0 -18.5 0zM231.25 1128.5 a9.25 9.25 0 1 0 18.5 0 a9.25 9.25 0 1 0 -18.5 0zM379.25 1017.5 a9.25 9.25 0 1 0 18.5 0 a9.25 9.25 0 1 0 -18.5 0z" fill="rgba(115, 45, 77, 1)"></path><path d="M18.5 462.5L55.5 425.5M129.5 425.5L166.5 425.5M-18.5 462.5L18.5 462.5L55.5 462.5L92.5 425.5L129.5 425.5L166.5 388.5L203.5 388.5" stroke="rgba(166, 68, 86, 1)" stroke-width="6.17"></path><path d="M194.25 388.5 a9.25 9.25 0 1 0 18.5 0 a9.25 9.25 0 1 0 -18.5 0zM46.25 425.5 a9.25 9.25 0 1 0 18.5 0 a9.25 9.25 0 1 0 -18.5 0zM157.25 425.5 a9.25 9.25 0 1 0 18.5 0 a9.25 9.25 0 1 0 -18.5 0z" fill="rgba(166, 68, 86, 1)"></path><path d="M92.5 1165.5L129.5 1128.5M277.5 1165.5L314.5 1128.5M55.5 1128.5L92.5 1128.5M-18.5 1054.5L18.5 1091.5L55.5 1128.5L92.5 1165.5L129.5 1165.5L166.5 1165.5L203.5 1165.5L240.5 1165.5L277.5 1165.5L314.5 1165.5L351.5 1165.5L388.5 1165.5L425.5 1165.5L462.5 1165.5" stroke="rgba(115, 45, 77, 1)" stroke-width="6.17"></path><path d="M453.25 1165.5 a9.25 9.25 0 1 0 18.5 0 a9.25 9.25 0 1 0 -18.5 0zM120.25 1128.5 a9.25 9.25 0 1 0 18.5 0 a9.25 9.25 0 1 0 -18.5 0zM305.25 1128.5 a9.25 9.25 0 1 0 18.5 0 a9.25 9.25 0 1 0 -18.5 0zM83.25 1128.5 a9.25 9.25 0 1 0 18.5 0 a9.25 9.25 0 1 0 -18.5 0z" fill="rgba(115, 45, 77, 1)"></path><path d="M647.5 277.5L684.5 240.5L721.5 240.5L758.5 240.5L795.5 240.5M610.5 277.5L647.5 240.5M573.5 277.5L610.5 240.5L647.5 203.5L684.5 203.5L721.5 203.5M277.5 351.5L314.5 314.5M536.5 277.5L573.5 240.5L610.5 203.5M-18.5 425.5L18.5 388.5L55.5 388.5L92.5 388.5L129.5 388.5L166.5 351.5L203.5 351.5L240.5 351.5L277.5 351.5L314.5 351.5L351.5 314.5L388.5 277.5L425.5 277.5L462.5 277.5L499.5 277.5L536.5 277.5L573.5 277.5L610.5 277.5L647.5 277.5L684.5 277.5" stroke="rgba(166, 68, 86, 1)" stroke-width="6.17"></path><path d="M675.25 277.5 a9.25 9.25 0 1 0 18.5 0 a9.25 9.25 0 1 0 -18.5 0zM786.25 240.5 a9.25 9.25 0 1 0 18.5 0 a9.25 9.25 0 1 0 -18.5 0zM638.25 240.5 a9.25 9.25 0 1 0 18.5 0 a9.25 9.25 0 1 0 -18.5 0zM712.25 203.5 a9.25 9.25 0 1 0 18.5 0 a9.25 9.25 0 1 0 -18.5 0zM305.25 314.5 a9.25 9.25 0 1 0 18.5 0 a9.25 9.25 0 1 0 -18.5 0zM601.25 203.5 a9.25 9.25 0 1 0 18.5 0 a9.25 9.25 0 1 0 -18.5 0z" fill="rgba(166, 68, 86, 1)"></path><path d="M832.5 1202.5L869.5 1165.5M610.5 1202.5L647.5 1239.5L684.5 1276.5L721.5 1276.5L758.5 1313.5M92.5 1202.5L129.5 1239.5L166.5 1239.5L203.5 1239.5L240.5 1239.5L277.5 1239.5M647.5 1202.5L684.5 1165.5L721.5 1165.5L758.5 1165.5L795.5 1165.5L832.5 1165.5L869.5 1128.5L906.5 1128.5M869.5 1202.5L906.5 1239.5L943.5 1276.5M943.5 1202.5L980.5 1165.5L1017.5 1165.5L1054.5 1165.5L1091.5 1165.5L1128.5 1165.5L1165.5 1165.5L1202.5 1165.5L1239.5 1165.5L1276.5 1202.5L1313.5 1239.5L1350.5 1239.5L1387.5 1239.5M499.5 1202.5L536.5 1165.5L573.5 1165.5L610.5 1165.5L647.5 1165.5L684.5 1128.5L721.5 1128.5L758.5 1128.5M-18.5 1091.5L18.5 1128.5L55.5 1165.5L92.5 1202.5L129.5 1202.5L166.5 1202.5L203.5 1202.5L240.5 1202.5L277.5 1202.5L314.5 1202.5L351.5 1202.5L388.5 1202.5L425.5 1202.5L462.5 1202.5L499.5 1202.5L536.5 1202.5L573.5 1202.5L610.5 1202.5L647.5 1202.5L684.5 1202.5L721.5 1202.5L758.5 1202.5L795.5 1202.5L832.5 1202.5L869.5 1202.5L906.5 1202.5L943.5 1202.5L980.5 1202.5L1017.5 1202.5L1054.5 1202.5L1091.5 1202.5" stroke="rgba(115, 45, 77, 1)" stroke-width="6.17"></path><path d="M1082.25 1202.5 a9.25 9.25 0 1 0 18.5 0 a9.25 9.25 0 1 0 -18.5 0zM860.25 1165.5 a9.25 9.25 0 1 0 18.5 0 a9.25 9.25 0 1 0 -18.5 0zM749.25 1313.5 a9.25 9.25 0 1 0 18.5 0 a9.25 9.25 0 1 0 -18.5 0zM268.25 1239.5 a9.25 9.25 0 1 0 18.5 0 a9.25 9.25 0 1 0 -18.5 0zM897.25 1128.5 a9.25 9.25 0 1 0 18.5 0 a9.25 9.25 0 1 0 -18.5 0zM934.25 1276.5 a9.25 9.25 0 1 0 18.5 0 a9.25 9.25 0 1 0 -18.5 0zM1378.25 1239.5 a9.25 9.25 0 1 0 18.5 0 a9.25 9.25 0 1 0 -18.5 0zM749.25 1128.5 a9.25 9.25 0 1 0 18.5 0 a9.25 9.25 0 1 0 -18.5 0z" fill="rgba(115, 45, 77, 1)"></path><path d="M462.5 240.5L499.5 203.5L536.5 203.5M55.5 351.5L92.5 314.5L129.5 277.5M388.5 240.5L425.5 203.5M-18.5 388.5L18.5 351.5L55.5 351.5L92.5 351.5L129.5 351.5L166.5 314.5L203.5 314.5L240.5 277.5L277.5 277.5L314.5 277.5L351.5 277.5L388.5 240.5L425.5 240.5L462.5 240.5L499.5 240.5" stroke="rgba(166, 68, 86, 1)" stroke-width="6.17"></path><path d="M490.25 240.5 a9.25 9.25 0 1 0 18.5 0 a9.25 9.25 0 1 0 -18.5 0zM527.25 203.5 a9.25 9.25 0 1 0 18.5 0 a9.25 9.25 0 1 0 -18.5 0zM120.25 277.5 a9.25 9.25 0 1 0 18.5 0 a9.25 9.25 0 1 0 -18.5 0zM416.25 203.5 a9.25 9.25 0 1 0 18.5 0 a9.25 9.25 0 1 0 -18.5 0z" fill="rgba(166, 68, 86, 1)"></path></g></g><defs><mask id="SvgjsMask1289"><rect width="2560" height="1480" fill="#ffffff"></rect></mask><mask id="SvgjsMask1290"><rect width="2560" height="1480" fill="white"></rect><path d="M309.87 684.5 a4.63 4.63 0 1 0 9.26 0 a4.63 4.63 0 1 0 -9.26 0zM124.87 795.5 a4.63 4.63 0 1 0 9.26 0 a4.63 4.63 0 1 0 -9.26 0zM235.87 758.5 a4.63 4.63 0 1 0 9.26 0 a4.63 4.63 0 1 0 -9.26 0zM420.87 721.5 a4.63 4.63 0 1 0 9.26 0 a4.63 4.63 0 1 0 -9.26 0z" fill="black"></path><path d="M309.87 647.5 a4.63 4.63 0 1 0 9.26 0 a4.63 4.63 0 1 0 -9.26 0zM420.87 647.5 a4.63 4.63 0 1 0 9.26 0 a4.63 4.63 0 1 0 -9.26 0zM235.87 610.5 a4.63 4.63 0 1 0 9.26 0 a4.63 4.63 0 1 0 -9.26 0z" fill="black"></path><path d="M568.87 832.5 a4.63 4.63 0 1 0 9.26 0 a4.63 4.63 0 1 0 -9.26 0zM346.87 869.5 a4.63 4.63 0 1 0 9.26 0 a4.63 4.63 0 1 0 -9.26 0zM383.87 795.5 a4.63 4.63 0 1 0 9.26 0 a4.63 4.63 0 1 0 -9.26 0zM457.87 795.5 a4.63 4.63 0 1 0 9.26 0 a4.63 4.63 0 1 0 -9.26 0zM420.87 869.5 a4.63 4.63 0 1 0 9.26 0 a4.63 4.63 0 1 0 -9.26 0z" fill="black"></path><path d="M1678.87 647.5 a4.63 4.63 0 1 0 9.26 0 a4.63 4.63 0 1 0 -9.26 0zM494.87 610.5 a4.63 4.63 0 1 0 9.26 0 a4.63 4.63 0 1 0 -9.26 0zM420.87 573.5 a4.63 4.63 0 1 0 9.26 0 a4.63 4.63 0 1 0 -9.26 0zM1826.87 684.5 a4.63 4.63 0 1 0 9.26 0 a4.63 4.63 0 1 0 -9.26 0zM1493.87 721.5 a4.63 4.63 0 1 0 9.26 0 a4.63 4.63 0 1 0 -9.26 0zM1382.87 610.5 a4.63 4.63 0 1 0 9.26 0 a4.63 4.63 0 1 0 -9.26 0zM1123.87 647.5 a4.63 4.63 0 1 0 9.26 0 a4.63 4.63 0 1 0 -9.26 0zM716.87 647.5 a4.63 4.63 0 1 0 9.26 0 a4.63 4.63 0 1 0 -9.26 0zM938.87 647.5 a4.63 4.63 0 1 0 9.26 0 a4.63 4.63 0 1 0 -9.26 0zM1604.87 610.5 a4.63 4.63 0 1 0 9.26 0 a4.63 4.63 0 1 0 -9.26 0zM198.87 610.5 a4.63 4.63 0 1 0 9.26 0 a4.63 4.63 0 1 0 -9.26 0zM753.87 573.5 a4.63 4.63 0 1 0 9.26 0 a4.63 4.63 0 1 0 -9.26 0z" fill="black"></path><path d="M975.87 1017.5 a4.63 4.63 0 1 0 9.26 0 a4.63 4.63 0 1 0 -9.26 0zM716.87 943.5 a4.63 4.63 0 1 0 9.26 0 a4.63 4.63 0 1 0 -9.26 0zM864.87 906.5 a4.63 4.63 0 1 0 9.26 0 a4.63 4.63 0 1 0 -9.26 0zM642.87 906.5 a4.63 4.63 0 1 0 9.26 0 a4.63 4.63 0 1 0 -9.26 0zM1012.87 980.5 a4.63 4.63 0 1 0 9.26 0 a4.63 4.63 0 1 0 -9.26 0zM383.87 906.5 a4.63 4.63 0 1 0 9.26 0 a4.63 4.63 0 1 0 -9.26 0zM531.87 906.5 a4.63 4.63 0 1 0 9.26 0 a4.63 4.63 0 1 0 -9.26 0zM975.87 943.5 a4.63 4.63 0 1 0 9.26 0 a4.63 4.63 0 1 0 -9.26 0z" fill="black"></path><path d="M1271.87 536.5 a4.63 4.63 0 1 0 9.26 0 a4.63 4.63 0 1 0 -9.26 0zM568.87 499.5 a4.63 4.63 0 1 0 9.26 0 a4.63 4.63 0 1 0 -9.26 0zM1086.87 499.5 a4.63 4.63 0 1 0 9.26 0 a4.63 4.63 0 1 0 -9.26 0zM1382.87 499.5 a4.63 4.63 0 1 0 9.26 0 a4.63 4.63 0 1 0 -9.26 0zM864.87 462.5 a4.63 4.63 0 1 0 9.26 0 a4.63 4.63 0 1 0 -9.26 0zM864.87 425.5 a4.63 4.63 0 1 0 9.26 0 a4.63 4.63 0 1 0 -9.26 0zM531.87 499.5 a4.63 4.63 0 1 0 9.26 0 a4.63 4.63 0 1 0 -9.26 0zM494.87 499.5 a4.63 4.63 0 1 0 9.26 0 a4.63 4.63 0 1 0 -9.26 0zM790.87 425.5 a4.63 4.63 0 1 0 9.26 0 a4.63 4.63 0 1 0 -9.26 0zM1567.87 573.5 a4.63 4.63 0 1 0 9.26 0 a4.63 4.63 0 1 0 -9.26 0z" fill="black"></path><path d="M161.87 906.5 a4.63 4.63 0 1 0 9.26 0 a4.63 4.63 0 1 0 -9.26 0zM235.87 943.5 a4.63 4.63 0 1 0 9.26 0 a4.63 4.63 0 1 0 -9.26 0z" fill="black"></path><path d="M642.87 462.5 a4.63 4.63 0 1 0 9.26 0 a4.63 4.63 0 1 0 -9.26 0zM272.87 462.5 a4.63 4.63 0 1 0 9.26 0 a4.63 4.63 0 1 0 -9.26 0zM346.87 499.5 a4.63 4.63 0 1 0 9.26 0 a4.63 4.63 0 1 0 -9.26 0zM605.87 425.5 a4.63 4.63 0 1 0 9.26 0 a4.63 4.63 0 1 0 -9.26 0zM494.87 425.5 a4.63 4.63 0 1 0 9.26 0 a4.63 4.63 0 1 0 -9.26 0z" fill="black"></path><path d="M1567.87 1054.5 a4.63 4.63 0 1 0 9.26 0 a4.63 4.63 0 1 0 -9.26 0zM1678.87 1128.5 a4.63 4.63 0 1 0 9.26 0 a4.63 4.63 0 1 0 -9.26 0zM494.87 1017.5 a4.63 4.63 0 1 0 9.26 0 a4.63 4.63 0 1 0 -9.26 0zM420.87 1017.5 a4.63 4.63 0 1 0 9.26 0 a4.63 4.63 0 1 0 -9.26 0zM1604.87 1165.5 a4.63 4.63 0 1 0 9.26 0 a4.63 4.63 0 1 0 -9.26 0zM1604.87 1017.5 a4.63 4.63 0 1 0 9.26 0 a4.63 4.63 0 1 0 -9.26 0zM1086.87 1054.5 a4.63 4.63 0 1 0 9.26 0 a4.63 4.63 0 1 0 -9.26 0zM1123.87 1017.5 a4.63 4.63 0 1 0 9.26 0 a4.63 4.63 0 1 0 -9.26 0zM124.87 943.5 a4.63 4.63 0 1 0 9.26 0 a4.63 4.63 0 1 0 -9.26 0zM1160.87 1128.5 a4.63 4.63 0 1 0 9.26 0 a4.63 4.63 0 1 0 -9.26 0zM1049.87 1054.5 a4.63 4.63 0 1 0 9.26 0 a4.63 4.63 0 1 0 -9.26 0zM1530.87 980.5 a4.63 4.63 0 1 0 9.26 0 a4.63 4.63 0 1 0 -9.26 0z" fill="black"></path><path d="M1715.87 462.5 a4.63 4.63 0 1 0 9.26 0 a4.63 4.63 0 1 0 -9.26 0zM1826.87 499.5 a4.63 4.63 0 1 0 9.26 0 a4.63 4.63 0 1 0 -9.26 0zM1530.87 388.5 a4.63 4.63 0 1 0 9.26 0 a4.63 4.63 0 1 0 -9.26 0zM642.87 351.5 a4.63 4.63 0 1 0 9.26 0 a4.63 4.63 0 1 0 -9.26 0zM1826.87 536.5 a4.63 4.63 0 1 0 9.26 0 a4.63 4.63 0 1 0 -9.26 0zM1530.87 351.5 a4.63 4.63 0 1 0 9.26 0 a4.63 4.63 0 1 0 -9.26 0zM1271.87 425.5 a4.63 4.63 0 1 0 9.26 0 a4.63 4.63 0 1 0 -9.26 0zM383.87 425.5 a4.63 4.63 0 1 0 9.26 0 a4.63 4.63 0 1 0 -9.26 0zM1456.87 462.5 a4.63 4.63 0 1 0 9.26 0 a4.63 4.63 0 1 0 -9.26 0zM1604.87 499.5 a4.63 4.63 0 1 0 9.26 0 a4.63 4.63 0 1 0 -9.26 0zM235.87 462.5 a4.63 4.63 0 1 0 9.26 0 a4.63 4.63 0 1 0 -9.26 0zM1715.87 425.5 a4.63 4.63 0 1 0 9.26 0 a4.63 4.63 0 1 0 -9.26 0zM1567.87 425.5 a4.63 4.63 0 1 0 9.26 0 a4.63 4.63 0 1 0 -9.26 0z" fill="black"></path><path d="M124.87 1017.5 a4.63 4.63 0 1 0 9.26 0 a4.63 4.63 0 1 0 -9.26 0z" fill="black"></path><path d="M975.87 314.5 a4.63 4.63 0 1 0 9.26 0 a4.63 4.63 0 1 0 -9.26 0zM531.87 351.5 a4.63 4.63 0 1 0 9.26 0 a4.63 4.63 0 1 0 -9.26 0zM1049.87 240.5 a4.63 4.63 0 1 0 9.26 0 a4.63 4.63 0 1 0 -9.26 0zM494.87 351.5 a4.63 4.63 0 1 0 9.26 0 a4.63 4.63 0 1 0 -9.26 0zM901.87 277.5 a4.63 4.63 0 1 0 9.26 0 a4.63 4.63 0 1 0 -9.26 0zM457.87 351.5 a4.63 4.63 0 1 0 9.26 0 a4.63 4.63 0 1 0 -9.26 0zM753.87 314.5 a4.63 4.63 0 1 0 9.26 0 a4.63 4.63 0 1 0 -9.26 0zM420.87 351.5 a4.63 4.63 0 1 0 9.26 0 a4.63 4.63 0 1 0 -9.26 0z" fill="black"></path><path d="M272.87 1017.5 a4.63 4.63 0 1 0 9.26 0 a4.63 4.63 0 1 0 -9.26 0zM161.87 1054.5 a4.63 4.63 0 1 0 9.26 0 a4.63 4.63 0 1 0 -9.26 0z" fill="black"></path><path d="M87.87 462.5 a4.63 4.63 0 1 0 9.26 0 a4.63 4.63 0 1 0 -9.26 0z" fill="black"></path><path d="M420.87 1054.5 a4.63 4.63 0 1 0 9.26 0 a4.63 4.63 0 1 0 -9.26 0zM346.87 1091.5 a4.63 4.63 0 1 0 9.26 0 a4.63 4.63 0 1 0 -9.26 0zM235.87 1128.5 a4.63 4.63 0 1 0 9.26 0 a4.63 4.63 0 1 0 -9.26 0zM383.87 1017.5 a4.63 4.63 0 1 0 9.26 0 a4.63 4.63 0 1 0 -9.26 0z" fill="black"></path><path d="M198.87 388.5 a4.63 4.63 0 1 0 9.26 0 a4.63 4.63 0 1 0 -9.26 0zM50.87 425.5 a4.63 4.63 0 1 0 9.26 0 a4.63 4.63 0 1 0 -9.26 0zM161.87 425.5 a4.63 4.63 0 1 0 9.26 0 a4.63 4.63 0 1 0 -9.26 0z" fill="black"></path><path d="M457.87 1165.5 a4.63 4.63 0 1 0 9.26 0 a4.63 4.63 0 1 0 -9.26 0zM124.87 1128.5 a4.63 4.63 0 1 0 9.26 0 a4.63 4.63 0 1 0 -9.26 0zM309.87 1128.5 a4.63 4.63 0 1 0 9.26 0 a4.63 4.63 0 1 0 -9.26 0zM87.87 1128.5 a4.63 4.63 0 1 0 9.26 0 a4.63 4.63 0 1 0 -9.26 0z" fill="black"></path><path d="M679.87 277.5 a4.63 4.63 0 1 0 9.26 0 a4.63 4.63 0 1 0 -9.26 0zM790.87 240.5 a4.63 4.63 0 1 0 9.26 0 a4.63 4.63 0 1 0 -9.26 0zM642.87 240.5 a4.63 4.63 0 1 0 9.26 0 a4.63 4.63 0 1 0 -9.26 0zM716.87 203.5 a4.63 4.63 0 1 0 9.26 0 a4.63 4.63 0 1 0 -9.26 0zM309.87 314.5 a4.63 4.63 0 1 0 9.26 0 a4.63 4.63 0 1 0 -9.26 0zM605.87 203.5 a4.63 4.63 0 1 0 9.26 0 a4.63 4.63 0 1 0 -9.26 0z" fill="black"></path><path d="M1086.87 1202.5 a4.63 4.63 0 1 0 9.26 0 a4.63 4.63 0 1 0 -9.26 0zM864.87 1165.5 a4.63 4.63 0 1 0 9.26 0 a4.63 4.63 0 1 0 -9.26 0zM753.87 1313.5 a4.63 4.63 0 1 0 9.26 0 a4.63 4.63 0 1 0 -9.26 0zM272.87 1239.5 a4.63 4.63 0 1 0 9.26 0 a4.63 4.63 0 1 0 -9.26 0zM901.87 1128.5 a4.63 4.63 0 1 0 9.26 0 a4.63 4.63 0 1 0 -9.26 0zM938.87 1276.5 a4.63 4.63 0 1 0 9.26 0 a4.63 4.63 0 1 0 -9.26 0zM1382.87 1239.5 a4.63 4.63 0 1 0 9.26 0 a4.63 4.63 0 1 0 -9.26 0zM753.87 1128.5 a4.63 4.63 0 1 0 9.26 0 a4.63 4.63 0 1 0 -9.26 0z" fill="black"></path><path d="M494.87 240.5 a4.63 4.63 0 1 0 9.26 0 a4.63 4.63 0 1 0 -9.26 0zM531.87 203.5 a4.63 4.63 0 1 0 9.26 0 a4.63 4.63 0 1 0 -9.26 0zM124.87 277.5 a4.63 4.63 0 1 0 9.26 0 a4.63 4.63 0 1 0 -9.26 0zM420.87 203.5 a4.63 4.63 0 1 0 9.26 0 a4.63 4.63 0 1 0 -9.26 0z" fill="black"></path></mask></defs></svg>