<svg xmlns="http://www.w3.org/2000/svg" version="1.1" xmlns:xlink="http://www.w3.org/1999/xlink" xmlns:svgjs="http://svgjs.com/svgjs" width="2560" height="1480" preserveAspectRatio="none" viewBox="0 0 2560 1480"><g mask="url(&quot;#SvgjsMask1008&quot;)" fill="none"><rect width="2560" height="1480" x="0" y="0" fill="rgba(115, 45, 77, 1)"></rect><g mask="url(&quot;#SvgjsMask1009&quot;)"><path d="M129.5 795.5L166.5 758.5L203.5 758.5M388.5 758.5L425.5 721.5M18.5 758.5L55.5 758.5L92.5 758.5M-18.5 758.5L18.5 758.5L55.5 795.5L92.5 795.5L129.5 795.5L166.5 795.5L203.5 795.5L240.5 758.5L277.5 758.5L314.5 758.5L351.5 758.5L388.5 758.5L425.5 758.5" stroke="rgba(191, 94, 73, 1)" stroke-width="6.17"></path><path d="M416.25 758.5 a9.25 9.25 0 1 0 18.5 0 a9.25 9.25 0 1 0 -18.5 0zM194.25 758.5 a9.25 9.25 0 1 0 18.5 0 a9.25 9.25 0 1 0 -18.5 0zM416.25 721.5 a9.25 9.25 0 1 0 18.5 0 a9.25 9.25 0 1 0 -18.5 0zM83.25 758.5 a9.25 9.25 0 1 0 18.5 0 a9.25 9.25 0 1 0 -18.5 0z" fill="rgba(191, 94, 73, 1)"></path><path d="M-18.5 721.5L18.5 721.5L55.5 721.5L92.5 721.5L129.5 721.5L166.5 721.5L203.5 721.5L240.5 721.5" stroke="rgba(166, 68, 86, 1)" stroke-width="6.17"></path><path d="M231.25 721.5 a9.25 9.25 0 1 0 18.5 0 a9.25 9.25 0 1 0 -18.5 0z" fill="rgba(166, 68, 86, 1)"></path><path d="M869.5 869.5L906.5 832.5L943.5 795.5L980.5 795.5M240.5 832.5L277.5 795.5L314.5 795.5L351.5 832.5L388.5 832.5M462.5 906.5L499.5 869.5L536.5 869.5L573.5 869.5L610.5 869.5L647.5 869.5L684.5 869.5L721.5 906.5M795.5 869.5L832.5 832.5L869.5 832.5L906.5 795.5L943.5 758.5M832.5 869.5L869.5 906.5L906.5 906.5L943.5 906.5L980.5 906.5L1017.5 906.5L1054.5 906.5M1091.5 869.5L1128.5 832.5M721.5 943.5L758.5 943.5L795.5 943.5M758.5 906.5L795.5 906.5L832.5 906.5L869.5 943.5L906.5 943.5L943.5 943.5L980.5 943.5L1017.5 943.5L1054.5 943.5M-18.5 795.5L18.5 795.5L55.5 832.5L92.5 832.5L129.5 832.5L166.5 832.5L203.5 832.5L240.5 832.5L277.5 832.5L314.5 869.5L351.5 869.5L388.5 906.5L425.5 906.5L462.5 906.5L499.5 906.5L536.5 906.5L573.5 906.5L610.5 906.5L647.5 906.5L684.5 943.5L721.5 943.5L758.5 906.5L795.5 869.5L832.5 869.5L869.5 869.5L906.5 869.5L943.5 869.5L980.5 869.5L1017.5 869.5L1054.5 869.5L1091.5 869.5L1128.5 869.5L1165.5 869.5L1202.5 869.5" stroke="rgba(191, 94, 73, 1)" stroke-width="6.17"></path><path d="M1193.25 869.5 a9.25 9.25 0 1 0 18.5 0 a9.25 9.25 0 1 0 -18.5 0zM971.25 795.5 a9.25 9.25 0 1 0 18.5 0 a9.25 9.25 0 1 0 -18.5 0zM379.25 832.5 a9.25 9.25 0 1 0 18.5 0 a9.25 9.25 0 1 0 -18.5 0zM712.25 906.5 a9.25 9.25 0 1 0 18.5 0 a9.25 9.25 0 1 0 -18.5 0zM934.25 758.5 a9.25 9.25 0 1 0 18.5 0 a9.25 9.25 0 1 0 -18.5 0zM1045.25 906.5 a9.25 9.25 0 1 0 18.5 0 a9.25 9.25 0 1 0 -18.5 0zM1119.25 832.5 a9.25 9.25 0 1 0 18.5 0 a9.25 9.25 0 1 0 -18.5 0zM786.25 943.5 a9.25 9.25 0 1 0 18.5 0 a9.25 9.25 0 1 0 -18.5 0zM1045.25 943.5 a9.25 9.25 0 1 0 18.5 0 a9.25 9.25 0 1 0 -18.5 0z" fill="rgba(191, 94, 73, 1)"></path><path d="M1091.5 610.5L1128.5 647.5L1165.5 647.5L1202.5 647.5L1239.5 647.5L1276.5 647.5L1313.5 647.5L1350.5 647.5L1387.5 647.5L1424.5 647.5L1461.5 647.5L1498.5 647.5L1535.5 647.5L1572.5 647.5L1609.5 647.5M647.5 684.5L684.5 721.5L721.5 721.5L758.5 721.5L795.5 721.5L832.5 721.5L869.5 721.5L906.5 721.5L943.5 721.5L980.5 721.5L1017.5 721.5M1424.5 610.5L1461.5 573.5M1054.5 610.5L1091.5 647.5M499.5 684.5L536.5 721.5L573.5 721.5L610.5 721.5M1609.5 610.5L1646.5 573.5L1683.5 536.5L1720.5 536.5L1757.5 536.5M1017.5 647.5L1054.5 647.5L1091.5 684.5L1128.5 684.5M980.5 684.5L1017.5 684.5L1054.5 684.5L1091.5 721.5L1128.5 721.5L1165.5 721.5L1202.5 721.5L1239.5 684.5L1276.5 684.5M1646.5 610.5L1683.5 610.5L1720.5 647.5L1757.5 647.5L1794.5 647.5M1535.5 610.5L1572.5 573.5L1609.5 573.5L1646.5 536.5M1387.5 610.5L1424.5 573.5L1461.5 536.5L1498.5 536.5L1535.5 536.5M314.5 684.5L351.5 721.5L388.5 721.5M-18.5 684.5L18.5 684.5L55.5 684.5L92.5 684.5L129.5 684.5L166.5 684.5L203.5 684.5L240.5 684.5L277.5 684.5L314.5 684.5L351.5 684.5L388.5 684.5L425.5 684.5L462.5 684.5L499.5 684.5L536.5 684.5L573.5 684.5L610.5 684.5L647.5 684.5L684.5 684.5L721.5 684.5L758.5 684.5L795.5 684.5L832.5 684.5L869.5 684.5L906.5 684.5L943.5 684.5L980.5 684.5L1017.5 647.5L1054.5 610.5L1091.5 610.5L1128.5 610.5L1165.5 610.5L1202.5 610.5L1239.5 610.5L1276.5 610.5L1313.5 610.5L1350.5 610.5L1387.5 610.5L1424.5 610.5L1461.5 610.5L1498.5 610.5L1535.5 610.5L1572.5 610.5L1609.5 610.5L1646.5 610.5L1683.5 573.5L1720.5 573.5" stroke="rgba(45, 31, 64, 1)" stroke-width="6.17"></path><path d="M1711.25 573.5 a9.25 9.25 0 1 0 18.5 0 a9.25 9.25 0 1 0 -18.5 0zM1600.25 647.5 a9.25 9.25 0 1 0 18.5 0 a9.25 9.25 0 1 0 -18.5 0zM1008.25 721.5 a9.25 9.25 0 1 0 18.5 0 a9.25 9.25 0 1 0 -18.5 0zM1452.25 573.5 a9.25 9.25 0 1 0 18.5 0 a9.25 9.25 0 1 0 -18.5 0zM1082.25 647.5 a9.25 9.25 0 1 0 18.5 0 a9.25 9.25 0 1 0 -18.5 0zM601.25 721.5 a9.25 9.25 0 1 0 18.5 0 a9.25 9.25 0 1 0 -18.5 0zM1748.25 536.5 a9.25 9.25 0 1 0 18.5 0 a9.25 9.25 0 1 0 -18.5 0zM1119.25 684.5 a9.25 9.25 0 1 0 18.5 0 a9.25 9.25 0 1 0 -18.5 0zM1267.25 684.5 a9.25 9.25 0 1 0 18.5 0 a9.25 9.25 0 1 0 -18.5 0zM1785.25 647.5 a9.25 9.25 0 1 0 18.5 0 a9.25 9.25 0 1 0 -18.5 0zM1637.25 536.5 a9.25 9.25 0 1 0 18.5 0 a9.25 9.25 0 1 0 -18.5 0zM1526.25 536.5 a9.25 9.25 0 1 0 18.5 0 a9.25 9.25 0 1 0 -18.5 0zM379.25 721.5 a9.25 9.25 0 1 0 18.5 0 a9.25 9.25 0 1 0 -18.5 0z" fill="rgba(45, 31, 64, 1)"></path><path d="M832.5 980.5L869.5 1017.5L906.5 1017.5L943.5 1017.5L980.5 1017.5L1017.5 1017.5M-18.5 832.5L18.5 832.5L55.5 869.5L92.5 869.5L129.5 869.5L166.5 869.5L203.5 869.5L240.5 869.5L277.5 869.5L314.5 906.5L351.5 906.5L388.5 943.5L425.5 943.5L462.5 943.5L499.5 943.5L536.5 943.5L573.5 943.5L610.5 943.5L647.5 943.5L684.5 980.5L721.5 980.5L758.5 980.5L795.5 980.5L832.5 980.5L869.5 980.5" stroke="rgba(45, 31, 64, 1)" stroke-width="6.17"></path><path d="M860.25 980.5 a9.25 9.25 0 1 0 18.5 0 a9.25 9.25 0 1 0 -18.5 0zM1008.25 1017.5 a9.25 9.25 0 1 0 18.5 0 a9.25 9.25 0 1 0 -18.5 0z" fill="rgba(45, 31, 64, 1)"></path><path d="M462.5 647.5L499.5 610.5L536.5 610.5L573.5 610.5L610.5 610.5L647.5 610.5M1054.5 573.5L1091.5 536.5L1128.5 536.5L1165.5 536.5M1202.5 573.5L1239.5 536.5L1276.5 536.5L1313.5 536.5L1350.5 536.5M721.5 647.5L758.5 610.5L795.5 610.5L832.5 610.5L869.5 610.5M425.5 647.5L462.5 610.5M388.5 647.5L425.5 610.5M684.5 647.5L721.5 610.5L758.5 573.5M351.5 647.5L388.5 610.5M906.5 647.5L943.5 610.5L980.5 610.5L1017.5 573.5L1054.5 536.5M-18.5 647.5L18.5 647.5L55.5 647.5L92.5 647.5L129.5 647.5L166.5 647.5L203.5 647.5L240.5 647.5L277.5 647.5L314.5 647.5L351.5 647.5L388.5 647.5L425.5 647.5L462.5 647.5L499.5 647.5L536.5 647.5L573.5 647.5L610.5 647.5L647.5 647.5L684.5 647.5L721.5 647.5L758.5 647.5L795.5 647.5L832.5 647.5L869.5 647.5L906.5 647.5L943.5 647.5L980.5 647.5L1017.5 610.5L1054.5 573.5L1091.5 573.5L1128.5 573.5L1165.5 573.5L1202.5 573.5L1239.5 573.5L1276.5 573.5L1313.5 573.5L1350.5 573.5" stroke="rgba(191, 94, 73, 1)" stroke-width="6.17"></path><path d="M1341.25 573.5 a9.25 9.25 0 1 0 18.5 0 a9.25 9.25 0 1 0 -18.5 0zM638.25 610.5 a9.25 9.25 0 1 0 18.5 0 a9.25 9.25 0 1 0 -18.5 0zM1156.25 536.5 a9.25 9.25 0 1 0 18.5 0 a9.25 9.25 0 1 0 -18.5 0zM1341.25 536.5 a9.25 9.25 0 1 0 18.5 0 a9.25 9.25 0 1 0 -18.5 0zM860.25 610.5 a9.25 9.25 0 1 0 18.5 0 a9.25 9.25 0 1 0 -18.5 0zM453.25 610.5 a9.25 9.25 0 1 0 18.5 0 a9.25 9.25 0 1 0 -18.5 0zM416.25 610.5 a9.25 9.25 0 1 0 18.5 0 a9.25 9.25 0 1 0 -18.5 0zM749.25 573.5 a9.25 9.25 0 1 0 18.5 0 a9.25 9.25 0 1 0 -18.5 0zM379.25 610.5 a9.25 9.25 0 1 0 18.5 0 a9.25 9.25 0 1 0 -18.5 0zM1045.25 536.5 a9.25 9.25 0 1 0 18.5 0 a9.25 9.25 0 1 0 -18.5 0z" fill="rgba(191, 94, 73, 1)"></path><path d="M1017.5 1091.5L1054.5 1054.5L1091.5 1054.5L1128.5 1054.5L1165.5 1054.5L1202.5 1054.5L1239.5 1054.5L1276.5 1054.5L1313.5 1054.5M1202.5 1091.5L1239.5 1091.5M906.5 1054.5L943.5 1054.5L980.5 1054.5L1017.5 1054.5M1276.5 1128.5L1313.5 1091.5L1350.5 1091.5L1387.5 1091.5M795.5 1017.5L832.5 1017.5M-18.5 869.5L18.5 869.5L55.5 906.5L92.5 906.5L129.5 906.5L166.5 906.5L203.5 906.5L240.5 906.5L277.5 906.5L314.5 943.5L351.5 943.5L388.5 980.5L425.5 980.5L462.5 980.5L499.5 980.5L536.5 980.5L573.5 980.5L610.5 980.5L647.5 980.5L684.5 1017.5L721.5 1017.5L758.5 1017.5L795.5 1017.5L832.5 1054.5L869.5 1054.5L906.5 1054.5L943.5 1091.5L980.5 1091.5L1017.5 1091.5L1054.5 1091.5L1091.5 1091.5L1128.5 1091.5L1165.5 1091.5L1202.5 1091.5L1239.5 1128.5L1276.5 1128.5L1313.5 1128.5L1350.5 1165.5" stroke="rgba(166, 68, 86, 1)" stroke-width="6.17"></path><path d="M1341.25 1165.5 a9.25 9.25 0 1 0 18.5 0 a9.25 9.25 0 1 0 -18.5 0zM1304.25 1054.5 a9.25 9.25 0 1 0 18.5 0 a9.25 9.25 0 1 0 -18.5 0zM1230.25 1091.5 a9.25 9.25 0 1 0 18.5 0 a9.25 9.25 0 1 0 -18.5 0zM1008.25 1054.5 a9.25 9.25 0 1 0 18.5 0 a9.25 9.25 0 1 0 -18.5 0zM1378.25 1091.5 a9.25 9.25 0 1 0 18.5 0 a9.25 9.25 0 1 0 -18.5 0zM823.25 1017.5 a9.25 9.25 0 1 0 18.5 0 a9.25 9.25 0 1 0 -18.5 0z" fill="rgba(166, 68, 86, 1)"></path><path d="M-18.5 610.5L18.5 610.5L55.5 610.5L92.5 610.5L129.5 610.5" stroke="rgba(45, 31, 64, 1)" stroke-width="6.17"></path><path d="M120.25 610.5 a9.25 9.25 0 1 0 18.5 0 a9.25 9.25 0 1 0 -18.5 0z" fill="rgba(45, 31, 64, 1)"></path><path d="M1276.5 1165.5L1313.5 1202.5L1350.5 1202.5M943.5 1128.5L980.5 1165.5L1017.5 1165.5L1054.5 1165.5M166.5 943.5L203.5 980.5L240.5 980.5L277.5 980.5M610.5 1017.5L647.5 1054.5M1165.5 1128.5L1202.5 1165.5L1239.5 1202.5M1091.5 1128.5L1128.5 1165.5L1165.5 1165.5L1202.5 1202.5L1239.5 1239.5L1276.5 1276.5L1313.5 1276.5L1350.5 1276.5L1387.5 1276.5L1424.5 1276.5L1461.5 1276.5M758.5 1054.5L795.5 1091.5L832.5 1128.5L869.5 1128.5L906.5 1128.5L943.5 1165.5L980.5 1202.5L1017.5 1202.5L1054.5 1202.5M721.5 1054.5L758.5 1091.5L795.5 1128.5M684.5 1054.5L721.5 1091.5M-18.5 906.5L18.5 906.5L55.5 943.5L92.5 943.5L129.5 943.5L166.5 943.5L203.5 943.5L240.5 943.5L277.5 943.5L314.5 980.5L351.5 980.5L388.5 1017.5L425.5 1017.5L462.5 1017.5L499.5 1017.5L536.5 1017.5L573.5 1017.5L610.5 1017.5L647.5 1017.5L684.5 1054.5L721.5 1054.5L758.5 1054.5L795.5 1054.5L832.5 1091.5L869.5 1091.5L906.5 1091.5L943.5 1128.5L980.5 1128.5L1017.5 1128.5L1054.5 1128.5L1091.5 1128.5L1128.5 1128.5L1165.5 1128.5L1202.5 1128.5L1239.5 1165.5L1276.5 1165.5L1313.5 1165.5" stroke="rgba(166, 68, 86, 1)" stroke-width="6.17"></path><path d="M1304.25 1165.5 a9.25 9.25 0 1 0 18.5 0 a9.25 9.25 0 1 0 -18.5 0zM1341.25 1202.5 a9.25 9.25 0 1 0 18.5 0 a9.25 9.25 0 1 0 -18.5 0zM1045.25 1165.5 a9.25 9.25 0 1 0 18.5 0 a9.25 9.25 0 1 0 -18.5 0zM268.25 980.5 a9.25 9.25 0 1 0 18.5 0 a9.25 9.25 0 1 0 -18.5 0zM638.25 1054.5 a9.25 9.25 0 1 0 18.5 0 a9.25 9.25 0 1 0 -18.5 0zM1230.25 1202.5 a9.25 9.25 0 1 0 18.5 0 a9.25 9.25 0 1 0 -18.5 0zM1452.25 1276.5 a9.25 9.25 0 1 0 18.5 0 a9.25 9.25 0 1 0 -18.5 0zM1045.25 1202.5 a9.25 9.25 0 1 0 18.5 0 a9.25 9.25 0 1 0 -18.5 0zM786.25 1128.5 a9.25 9.25 0 1 0 18.5 0 a9.25 9.25 0 1 0 -18.5 0zM712.25 1091.5 a9.25 9.25 0 1 0 18.5 0 a9.25 9.25 0 1 0 -18.5 0z" fill="rgba(166, 68, 86, 1)"></path><path d="M277.5 573.5L314.5 610.5M166.5 573.5L203.5 610.5L240.5 610.5M-18.5 573.5L18.5 573.5L55.5 573.5L92.5 573.5L129.5 573.5L166.5 573.5L203.5 573.5L240.5 573.5L277.5 573.5L314.5 573.5L351.5 573.5L388.5 573.5L425.5 573.5L462.5 573.5L499.5 573.5L536.5 573.5L573.5 573.5" stroke="rgba(45, 31, 64, 1)" stroke-width="6.17"></path><path d="M564.25 573.5 a9.25 9.25 0 1 0 18.5 0 a9.25 9.25 0 1 0 -18.5 0zM305.25 610.5 a9.25 9.25 0 1 0 18.5 0 a9.25 9.25 0 1 0 -18.5 0zM231.25 610.5 a9.25 9.25 0 1 0 18.5 0 a9.25 9.25 0 1 0 -18.5 0z" fill="rgba(45, 31, 64, 1)"></path><path d="M536.5 1054.5L573.5 1091.5L610.5 1091.5L647.5 1091.5L684.5 1091.5M462.5 1054.5L499.5 1091.5L536.5 1091.5L573.5 1128.5M129.5 980.5L166.5 980.5M388.5 1054.5L425.5 1091.5L462.5 1091.5L499.5 1128.5L536.5 1128.5L573.5 1165.5L610.5 1202.5M-18.5 943.5L18.5 943.5L55.5 980.5L92.5 980.5L129.5 980.5L166.5 1017.5L203.5 1017.5L240.5 1017.5L277.5 1017.5L314.5 1017.5L351.5 1017.5L388.5 1054.5L425.5 1054.5L462.5 1054.5L499.5 1054.5L536.5 1054.5L573.5 1054.5" stroke="rgba(191, 94, 73, 1)" stroke-width="6.17"></path><path d="M564.25 1054.5 a9.25 9.25 0 1 0 18.5 0 a9.25 9.25 0 1 0 -18.5 0zM675.25 1091.5 a9.25 9.25 0 1 0 18.5 0 a9.25 9.25 0 1 0 -18.5 0zM564.25 1128.5 a9.25 9.25 0 1 0 18.5 0 a9.25 9.25 0 1 0 -18.5 0zM157.25 980.5 a9.25 9.25 0 1 0 18.5 0 a9.25 9.25 0 1 0 -18.5 0zM601.25 1202.5 a9.25 9.25 0 1 0 18.5 0 a9.25 9.25 0 1 0 -18.5 0z" fill="rgba(191, 94, 73, 1)"></path><path d="M795.5 499.5L832.5 536.5L869.5 536.5L906.5 536.5L943.5 536.5L980.5 536.5M388.5 536.5L425.5 499.5M1387.5 462.5L1424.5 499.5M573.5 536.5L610.5 536.5L647.5 536.5L684.5 536.5L721.5 536.5L758.5 536.5L795.5 536.5L832.5 573.5M536.5 536.5L573.5 499.5L610.5 462.5L647.5 462.5L684.5 462.5L721.5 462.5L758.5 462.5M314.5 536.5L351.5 499.5L388.5 499.5M1313.5 462.5L1350.5 499.5L1387.5 499.5L1424.5 536.5M1424.5 462.5L1461.5 425.5M277.5 536.5L314.5 499.5M1276.5 499.5L1313.5 499.5M-18.5 536.5L18.5 536.5L55.5 536.5L92.5 536.5L129.5 536.5L166.5 536.5L203.5 536.5L240.5 536.5L277.5 536.5L314.5 536.5L351.5 536.5L388.5 536.5L425.5 536.5L462.5 536.5L499.5 536.5L536.5 536.5L573.5 536.5L610.5 499.5L647.5 499.5L684.5 499.5L721.5 499.5L758.5 499.5L795.5 499.5L832.5 499.5L869.5 499.5L906.5 499.5L943.5 499.5L980.5 499.5L1017.5 499.5L1054.5 499.5L1091.5 499.5L1128.5 499.5L1165.5 499.5L1202.5 499.5L1239.5 499.5L1276.5 499.5L1313.5 462.5L1350.5 462.5L1387.5 462.5L1424.5 462.5L1461.5 462.5L1498.5 425.5" stroke="rgba(166, 68, 86, 1)" stroke-width="6.17"></path><path d="M1489.25 425.5 a9.25 9.25 0 1 0 18.5 0 a9.25 9.25 0 1 0 -18.5 0zM971.25 536.5 a9.25 9.25 0 1 0 18.5 0 a9.25 9.25 0 1 0 -18.5 0zM416.25 499.5 a9.25 9.25 0 1 0 18.5 0 a9.25 9.25 0 1 0 -18.5 0zM1415.25 499.5 a9.25 9.25 0 1 0 18.5 0 a9.25 9.25 0 1 0 -18.5 0zM823.25 573.5 a9.25 9.25 0 1 0 18.5 0 a9.25 9.25 0 1 0 -18.5 0zM749.25 462.5 a9.25 9.25 0 1 0 18.5 0 a9.25 9.25 0 1 0 -18.5 0zM379.25 499.5 a9.25 9.25 0 1 0 18.5 0 a9.25 9.25 0 1 0 -18.5 0zM1415.25 536.5 a9.25 9.25 0 1 0 18.5 0 a9.25 9.25 0 1 0 -18.5 0zM1452.25 425.5 a9.25 9.25 0 1 0 18.5 0 a9.25 9.25 0 1 0 -18.5 0zM305.25 499.5 a9.25 9.25 0 1 0 18.5 0 a9.25 9.25 0 1 0 -18.5 0zM1304.25 499.5 a9.25 9.25 0 1 0 18.5 0 a9.25 9.25 0 1 0 -18.5 0z" fill="rgba(166, 68, 86, 1)"></path><path d="M-18.5 980.5L18.5 980.5L55.5 1017.5L92.5 1017.5L129.5 1017.5" stroke="rgba(191, 94, 73, 1)" stroke-width="6.17"></path><path d="M120.25 1017.5 a9.25 9.25 0 1 0 18.5 0 a9.25 9.25 0 1 0 -18.5 0z" fill="rgba(191, 94, 73, 1)"></path><path d="M1165.5 462.5L1202.5 425.5L1239.5 425.5L1276.5 425.5M203.5 462.5L240.5 499.5L277.5 499.5M129.5 499.5L166.5 499.5L203.5 499.5M425.5 462.5L462.5 462.5L499.5 462.5L536.5 462.5M1091.5 462.5L1128.5 425.5L1165.5 425.5M1054.5 462.5L1091.5 425.5M-18.5 499.5L18.5 499.5L55.5 499.5L92.5 499.5L129.5 499.5L166.5 462.5L203.5 462.5L240.5 462.5L277.5 462.5L314.5 462.5L351.5 462.5L388.5 462.5L425.5 462.5L462.5 425.5L499.5 425.5L536.5 425.5L573.5 425.5L610.5 425.5L647.5 425.5L684.5 425.5L721.5 425.5L758.5 425.5L795.5 462.5L832.5 462.5L869.5 462.5L906.5 462.5L943.5 462.5L980.5 462.5L1017.5 462.5L1054.5 462.5L1091.5 462.5L1128.5 462.5L1165.5 462.5L1202.5 462.5L1239.5 462.5L1276.5 462.5L1313.5 425.5L1350.5 425.5L1387.5 425.5" stroke="rgba(45, 31, 64, 1)" stroke-width="6.17"></path><path d="M1378.25 425.5 a9.25 9.25 0 1 0 18.5 0 a9.25 9.25 0 1 0 -18.5 0zM1267.25 425.5 a9.25 9.25 0 1 0 18.5 0 a9.25 9.25 0 1 0 -18.5 0zM268.25 499.5 a9.25 9.25 0 1 0 18.5 0 a9.25 9.25 0 1 0 -18.5 0zM194.25 499.5 a9.25 9.25 0 1 0 18.5 0 a9.25 9.25 0 1 0 -18.5 0zM527.25 462.5 a9.25 9.25 0 1 0 18.5 0 a9.25 9.25 0 1 0 -18.5 0zM1156.25 425.5 a9.25 9.25 0 1 0 18.5 0 a9.25 9.25 0 1 0 -18.5 0zM1082.25 425.5 a9.25 9.25 0 1 0 18.5 0 a9.25 9.25 0 1 0 -18.5 0z" fill="rgba(45, 31, 64, 1)"></path><path d="M-18.5 1017.5L18.5 1017.5L55.5 1054.5L92.5 1054.5L129.5 1054.5L166.5 1054.5L203.5 1054.5L240.5 1054.5L277.5 1054.5L314.5 1054.5L351.5 1054.5" stroke="rgba(166, 68, 86, 1)" stroke-width="6.17"></path><path d="M342.25 1054.5 a9.25 9.25 0 1 0 18.5 0 a9.25 9.25 0 1 0 -18.5 0z" fill="rgba(166, 68, 86, 1)"></path><path d="M869.5 425.5L906.5 388.5L943.5 388.5L980.5 388.5L1017.5 388.5M1239.5 388.5L1276.5 351.5M647.5 388.5L684.5 351.5L721.5 351.5L758.5 351.5L795.5 351.5M758.5 388.5L795.5 388.5L832.5 388.5L869.5 388.5L906.5 351.5M1165.5 388.5L1202.5 351.5L1239.5 351.5L1276.5 314.5L1313.5 314.5L1350.5 314.5L1387.5 314.5L1424.5 314.5L1461.5 314.5L1498.5 314.5L1535.5 314.5L1572.5 314.5L1609.5 314.5L1646.5 314.5L1683.5 314.5L1720.5 314.5L1757.5 351.5L1794.5 351.5L1831.5 351.5M1313.5 388.5L1350.5 351.5M1461.5 388.5L1498.5 351.5L1535.5 351.5L1572.5 351.5L1609.5 351.5M1646.5 388.5L1683.5 388.5L1720.5 388.5L1757.5 388.5L1794.5 388.5M1609.5 388.5L1646.5 425.5L1683.5 462.5M536.5 388.5L573.5 351.5L610.5 351.5L647.5 351.5M1091.5 388.5L1128.5 351.5L1165.5 314.5L1202.5 314.5L1239.5 314.5L1276.5 277.5L1313.5 277.5L1350.5 277.5L1387.5 277.5L1424.5 277.5L1461.5 277.5L1498.5 277.5M-18.5 462.5L18.5 462.5L55.5 462.5L92.5 462.5L129.5 462.5L166.5 425.5L203.5 425.5L240.5 425.5L277.5 425.5L314.5 425.5L351.5 425.5L388.5 425.5L425.5 425.5L462.5 388.5L499.5 388.5L536.5 388.5L573.5 388.5L610.5 388.5L647.5 388.5L684.5 388.5L721.5 388.5L758.5 388.5L795.5 425.5L832.5 425.5L869.5 425.5L906.5 425.5L943.5 425.5L980.5 425.5L1017.5 425.5L1054.5 388.5L1091.5 388.5L1128.5 388.5L1165.5 388.5L1202.5 388.5L1239.5 388.5L1276.5 388.5L1313.5 388.5L1350.5 388.5L1387.5 388.5L1424.5 388.5L1461.5 388.5L1498.5 388.5L1535.5 388.5L1572.5 388.5L1609.5 388.5L1646.5 388.5L1683.5 425.5" stroke="rgba(45, 31, 64, 1)" stroke-width="6.17"></path><path d="M1674.25 425.5 a9.25 9.25 0 1 0 18.5 0 a9.25 9.25 0 1 0 -18.5 0zM1008.25 388.5 a9.25 9.25 0 1 0 18.5 0 a9.25 9.25 0 1 0 -18.5 0zM1267.25 351.5 a9.25 9.25 0 1 0 18.5 0 a9.25 9.25 0 1 0 -18.5 0zM786.25 351.5 a9.25 9.25 0 1 0 18.5 0 a9.25 9.25 0 1 0 -18.5 0zM897.25 351.5 a9.25 9.25 0 1 0 18.5 0 a9.25 9.25 0 1 0 -18.5 0zM1822.25 351.5 a9.25 9.25 0 1 0 18.5 0 a9.25 9.25 0 1 0 -18.5 0zM1341.25 351.5 a9.25 9.25 0 1 0 18.5 0 a9.25 9.25 0 1 0 -18.5 0zM1600.25 351.5 a9.25 9.25 0 1 0 18.5 0 a9.25 9.25 0 1 0 -18.5 0zM1785.25 388.5 a9.25 9.25 0 1 0 18.5 0 a9.25 9.25 0 1 0 -18.5 0zM1674.25 462.5 a9.25 9.25 0 1 0 18.5 0 a9.25 9.25 0 1 0 -18.5 0zM638.25 351.5 a9.25 9.25 0 1 0 18.5 0 a9.25 9.25 0 1 0 -18.5 0zM1489.25 277.5 a9.25 9.25 0 1 0 18.5 0 a9.25 9.25 0 1 0 -18.5 0z" fill="rgba(45, 31, 64, 1)"></path><path d="M-18.5 1054.5L18.5 1054.5L55.5 1091.5L92.5 1091.5L129.5 1091.5L166.5 1091.5" stroke="rgba(191, 94, 73, 1)" stroke-width="6.17"></path><path d="M157.25 1091.5 a9.25 9.25 0 1 0 18.5 0 a9.25 9.25 0 1 0 -18.5 0z" fill="rgba(191, 94, 73, 1)"></path><path d="M758.5 277.5L795.5 314.5L832.5 314.5L869.5 351.5M610.5 314.5L647.5 314.5M351.5 388.5L388.5 351.5L425.5 351.5M721.5 277.5L758.5 314.5M943.5 277.5L980.5 314.5L1017.5 314.5L1054.5 314.5L1091.5 314.5L1128.5 314.5M684.5 277.5L721.5 314.5M499.5 351.5L536.5 351.5M-18.5 425.5L18.5 425.5L55.5 425.5L92.5 425.5L129.5 425.5L166.5 388.5L203.5 388.5L240.5 388.5L277.5 388.5L314.5 388.5L351.5 388.5L388.5 388.5L425.5 388.5L462.5 351.5L499.5 351.5L536.5 314.5L573.5 314.5L610.5 314.5L647.5 277.5L684.5 277.5L721.5 277.5L758.5 277.5L795.5 277.5L832.5 277.5L869.5 277.5L906.5 277.5L943.5 277.5L980.5 277.5L1017.5 277.5" stroke="rgba(45, 31, 64, 1)" stroke-width="6.17"></path><path d="M1008.25 277.5 a9.25 9.25 0 1 0 18.5 0 a9.25 9.25 0 1 0 -18.5 0zM860.25 351.5 a9.25 9.25 0 1 0 18.5 0 a9.25 9.25 0 1 0 -18.5 0zM638.25 314.5 a9.25 9.25 0 1 0 18.5 0 a9.25 9.25 0 1 0 -18.5 0zM416.25 351.5 a9.25 9.25 0 1 0 18.5 0 a9.25 9.25 0 1 0 -18.5 0zM749.25 314.5 a9.25 9.25 0 1 0 18.5 0 a9.25 9.25 0 1 0 -18.5 0zM1119.25 314.5 a9.25 9.25 0 1 0 18.5 0 a9.25 9.25 0 1 0 -18.5 0zM712.25 314.5 a9.25 9.25 0 1 0 18.5 0 a9.25 9.25 0 1 0 -18.5 0zM527.25 351.5 a9.25 9.25 0 1 0 18.5 0 a9.25 9.25 0 1 0 -18.5 0z" fill="rgba(45, 31, 64, 1)"></path><path d="M129.5 1128.5L166.5 1165.5L203.5 1165.5M55.5 1128.5L92.5 1165.5M277.5 1091.5L314.5 1128.5L351.5 1128.5L388.5 1128.5L425.5 1128.5M-18.5 1091.5L18.5 1091.5L55.5 1128.5L92.5 1128.5L129.5 1128.5L166.5 1128.5L203.5 1091.5L240.5 1091.5L277.5 1091.5L314.5 1091.5" stroke="rgba(166, 68, 86, 1)" stroke-width="6.17"></path><path d="M305.25 1091.5 a9.25 9.25 0 1 0 18.5 0 a9.25 9.25 0 1 0 -18.5 0zM194.25 1165.5 a9.25 9.25 0 1 0 18.5 0 a9.25 9.25 0 1 0 -18.5 0zM83.25 1165.5 a9.25 9.25 0 1 0 18.5 0 a9.25 9.25 0 1 0 -18.5 0zM416.25 1128.5 a9.25 9.25 0 1 0 18.5 0 a9.25 9.25 0 1 0 -18.5 0z" fill="rgba(166, 68, 86, 1)"></path><path d="M277.5 351.5L314.5 314.5L351.5 277.5L388.5 277.5L425.5 277.5M166.5 351.5L203.5 314.5L240.5 314.5L277.5 314.5L314.5 277.5M1461.5 203.5L1498.5 166.5L1535.5 166.5L1572.5 166.5L1609.5 166.5M980.5 240.5L1017.5 203.5L1054.5 166.5L1091.5 166.5L1128.5 166.5L1165.5 166.5L1202.5 166.5L1239.5 166.5L1276.5 166.5L1313.5 166.5L1350.5 166.5M647.5 240.5L684.5 203.5L721.5 203.5L758.5 203.5L795.5 203.5M832.5 240.5L869.5 203.5L906.5 203.5M18.5 388.5L55.5 351.5L92.5 351.5L129.5 314.5L166.5 314.5M1128.5 203.5L1165.5 240.5L1202.5 240.5L1239.5 240.5L1276.5 240.5L1313.5 240.5L1350.5 240.5L1387.5 240.5L1424.5 240.5L1461.5 240.5L1498.5 240.5L1535.5 240.5M1424.5 203.5L1461.5 166.5L1498.5 129.5L1535.5 129.5L1572.5 129.5L1609.5 92.5L1646.5 92.5L1683.5 129.5L1720.5 129.5L1757.5 129.5L1794.5 129.5L1831.5 129.5M1091.5 203.5L1128.5 240.5L1165.5 277.5L1202.5 277.5L1239.5 277.5M610.5 240.5L647.5 203.5L684.5 166.5L721.5 166.5L758.5 166.5L795.5 166.5L832.5 166.5L869.5 166.5M-18.5 388.5L18.5 388.5L55.5 388.5L92.5 388.5L129.5 388.5L166.5 351.5L203.5 351.5L240.5 351.5L277.5 351.5L314.5 351.5L351.5 314.5L388.5 314.5L425.5 314.5L462.5 314.5L499.5 314.5L536.5 277.5L573.5 240.5L610.5 240.5L647.5 240.5L684.5 240.5L721.5 240.5L758.5 240.5L795.5 240.5L832.5 240.5L869.5 240.5L906.5 240.5L943.5 240.5L980.5 240.5L1017.5 240.5L1054.5 203.5L1091.5 203.5L1128.5 203.5L1165.5 203.5L1202.5 203.5L1239.5 203.5L1276.5 203.5L1313.5 203.5L1350.5 203.5L1387.5 203.5L1424.5 203.5L1461.5 203.5L1498.5 203.5L1535.5 203.5L1572.5 203.5L1609.5 203.5L1646.5 203.5L1683.5 203.5" stroke="rgba(166, 68, 86, 1)" stroke-width="6.17"></path><path d="M1674.25 203.5 a9.25 9.25 0 1 0 18.5 0 a9.25 9.25 0 1 0 -18.5 0zM416.25 277.5 a9.25 9.25 0 1 0 18.5 0 a9.25 9.25 0 1 0 -18.5 0zM305.25 277.5 a9.25 9.25 0 1 0 18.5 0 a9.25 9.25 0 1 0 -18.5 0zM1600.25 166.5 a9.25 9.25 0 1 0 18.5 0 a9.25 9.25 0 1 0 -18.5 0zM1341.25 166.5 a9.25 9.25 0 1 0 18.5 0 a9.25 9.25 0 1 0 -18.5 0zM786.25 203.5 a9.25 9.25 0 1 0 18.5 0 a9.25 9.25 0 1 0 -18.5 0zM897.25 203.5 a9.25 9.25 0 1 0 18.5 0 a9.25 9.25 0 1 0 -18.5 0zM157.25 314.5 a9.25 9.25 0 1 0 18.5 0 a9.25 9.25 0 1 0 -18.5 0zM1526.25 240.5 a9.25 9.25 0 1 0 18.5 0 a9.25 9.25 0 1 0 -18.5 0zM1822.25 129.5 a9.25 9.25 0 1 0 18.5 0 a9.25 9.25 0 1 0 -18.5 0zM1230.25 277.5 a9.25 9.25 0 1 0 18.5 0 a9.25 9.25 0 1 0 -18.5 0zM860.25 166.5 a9.25 9.25 0 1 0 18.5 0 a9.25 9.25 0 1 0 -18.5 0z" fill="rgba(166, 68, 86, 1)"></path></g></g><defs><mask id="SvgjsMask1008"><rect width="2560" height="1480" fill="#ffffff"></rect></mask><mask id="SvgjsMask1009"><rect width="2560" height="1480" fill="white"></rect><path d="M420.87 758.5 a4.63 4.63 0 1 0 9.26 0 a4.63 4.63 0 1 0 -9.26 0zM198.87 758.5 a4.63 4.63 0 1 0 9.26 0 a4.63 4.63 0 1 0 -9.26 0zM420.87 721.5 a4.63 4.63 0 1 0 9.26 0 a4.63 4.63 0 1 0 -9.26 0zM87.87 758.5 a4.63 4.63 0 1 0 9.26 0 a4.63 4.63 0 1 0 -9.26 0z" fill="black"></path><path d="M235.87 721.5 a4.63 4.63 0 1 0 9.26 0 a4.63 4.63 0 1 0 -9.26 0z" fill="black"></path><path d="M1197.87 869.5 a4.63 4.63 0 1 0 9.26 0 a4.63 4.63 0 1 0 -9.26 0zM975.87 795.5 a4.63 4.63 0 1 0 9.26 0 a4.63 4.63 0 1 0 -9.26 0zM383.87 832.5 a4.63 4.63 0 1 0 9.26 0 a4.63 4.63 0 1 0 -9.26 0zM716.87 906.5 a4.63 4.63 0 1 0 9.26 0 a4.63 4.63 0 1 0 -9.26 0zM938.87 758.5 a4.63 4.63 0 1 0 9.26 0 a4.63 4.63 0 1 0 -9.26 0zM1049.87 906.5 a4.63 4.63 0 1 0 9.26 0 a4.63 4.63 0 1 0 -9.26 0zM1123.87 832.5 a4.63 4.63 0 1 0 9.26 0 a4.63 4.63 0 1 0 -9.26 0zM790.87 943.5 a4.63 4.63 0 1 0 9.26 0 a4.63 4.63 0 1 0 -9.26 0zM1049.87 943.5 a4.63 4.63 0 1 0 9.26 0 a4.63 4.63 0 1 0 -9.26 0z" fill="black"></path><path d="M1715.87 573.5 a4.63 4.63 0 1 0 9.26 0 a4.63 4.63 0 1 0 -9.26 0zM1604.87 647.5 a4.63 4.63 0 1 0 9.26 0 a4.63 4.63 0 1 0 -9.26 0zM1012.87 721.5 a4.63 4.63 0 1 0 9.26 0 a4.63 4.63 0 1 0 -9.26 0zM1456.87 573.5 a4.63 4.63 0 1 0 9.26 0 a4.63 4.63 0 1 0 -9.26 0zM1086.87 647.5 a4.63 4.63 0 1 0 9.26 0 a4.63 4.63 0 1 0 -9.26 0zM605.87 721.5 a4.63 4.63 0 1 0 9.26 0 a4.63 4.63 0 1 0 -9.26 0zM1752.87 536.5 a4.63 4.63 0 1 0 9.26 0 a4.63 4.63 0 1 0 -9.26 0zM1123.87 684.5 a4.63 4.63 0 1 0 9.26 0 a4.63 4.63 0 1 0 -9.26 0zM1271.87 684.5 a4.63 4.63 0 1 0 9.26 0 a4.63 4.63 0 1 0 -9.26 0zM1789.87 647.5 a4.63 4.63 0 1 0 9.26 0 a4.63 4.63 0 1 0 -9.26 0zM1641.87 536.5 a4.63 4.63 0 1 0 9.26 0 a4.63 4.63 0 1 0 -9.26 0zM1530.87 536.5 a4.63 4.63 0 1 0 9.26 0 a4.63 4.63 0 1 0 -9.26 0zM383.87 721.5 a4.63 4.63 0 1 0 9.26 0 a4.63 4.63 0 1 0 -9.26 0z" fill="black"></path><path d="M864.87 980.5 a4.63 4.63 0 1 0 9.26 0 a4.63 4.63 0 1 0 -9.26 0zM1012.87 1017.5 a4.63 4.63 0 1 0 9.26 0 a4.63 4.63 0 1 0 -9.26 0z" fill="black"></path><path d="M1345.87 573.5 a4.63 4.63 0 1 0 9.26 0 a4.63 4.63 0 1 0 -9.26 0zM642.87 610.5 a4.63 4.63 0 1 0 9.26 0 a4.63 4.63 0 1 0 -9.26 0zM1160.87 536.5 a4.63 4.63 0 1 0 9.26 0 a4.63 4.63 0 1 0 -9.26 0zM1345.87 536.5 a4.63 4.63 0 1 0 9.26 0 a4.63 4.63 0 1 0 -9.26 0zM864.87 610.5 a4.63 4.63 0 1 0 9.26 0 a4.63 4.63 0 1 0 -9.26 0zM457.87 610.5 a4.63 4.63 0 1 0 9.26 0 a4.63 4.63 0 1 0 -9.26 0zM420.87 610.5 a4.63 4.63 0 1 0 9.26 0 a4.63 4.63 0 1 0 -9.26 0zM753.87 573.5 a4.63 4.63 0 1 0 9.26 0 a4.63 4.63 0 1 0 -9.26 0zM383.87 610.5 a4.63 4.63 0 1 0 9.26 0 a4.63 4.63 0 1 0 -9.26 0zM1049.87 536.5 a4.63 4.63 0 1 0 9.26 0 a4.63 4.63 0 1 0 -9.26 0z" fill="black"></path><path d="M1345.87 1165.5 a4.63 4.63 0 1 0 9.26 0 a4.63 4.63 0 1 0 -9.26 0zM1308.87 1054.5 a4.63 4.63 0 1 0 9.26 0 a4.63 4.63 0 1 0 -9.26 0zM1234.87 1091.5 a4.63 4.63 0 1 0 9.26 0 a4.63 4.63 0 1 0 -9.26 0zM1012.87 1054.5 a4.63 4.63 0 1 0 9.26 0 a4.63 4.63 0 1 0 -9.26 0zM1382.87 1091.5 a4.63 4.63 0 1 0 9.26 0 a4.63 4.63 0 1 0 -9.26 0zM827.87 1017.5 a4.63 4.63 0 1 0 9.26 0 a4.63 4.63 0 1 0 -9.26 0z" fill="black"></path><path d="M124.87 610.5 a4.63 4.63 0 1 0 9.26 0 a4.63 4.63 0 1 0 -9.26 0z" fill="black"></path><path d="M1308.87 1165.5 a4.63 4.63 0 1 0 9.26 0 a4.63 4.63 0 1 0 -9.26 0zM1345.87 1202.5 a4.63 4.63 0 1 0 9.26 0 a4.63 4.63 0 1 0 -9.26 0zM1049.87 1165.5 a4.63 4.63 0 1 0 9.26 0 a4.63 4.63 0 1 0 -9.26 0zM272.87 980.5 a4.63 4.63 0 1 0 9.26 0 a4.63 4.63 0 1 0 -9.26 0zM642.87 1054.5 a4.63 4.63 0 1 0 9.26 0 a4.63 4.63 0 1 0 -9.26 0zM1234.87 1202.5 a4.63 4.63 0 1 0 9.26 0 a4.63 4.63 0 1 0 -9.26 0zM1456.87 1276.5 a4.63 4.63 0 1 0 9.26 0 a4.63 4.63 0 1 0 -9.26 0zM1049.87 1202.5 a4.63 4.63 0 1 0 9.26 0 a4.63 4.63 0 1 0 -9.26 0zM790.87 1128.5 a4.63 4.63 0 1 0 9.26 0 a4.63 4.63 0 1 0 -9.26 0zM716.87 1091.5 a4.63 4.63 0 1 0 9.26 0 a4.63 4.63 0 1 0 -9.26 0z" fill="black"></path><path d="M568.87 573.5 a4.63 4.63 0 1 0 9.26 0 a4.63 4.63 0 1 0 -9.26 0zM309.87 610.5 a4.63 4.63 0 1 0 9.26 0 a4.63 4.63 0 1 0 -9.26 0zM235.87 610.5 a4.63 4.63 0 1 0 9.26 0 a4.63 4.63 0 1 0 -9.26 0z" fill="black"></path><path d="M568.87 1054.5 a4.63 4.63 0 1 0 9.26 0 a4.63 4.63 0 1 0 -9.26 0zM679.87 1091.5 a4.63 4.63 0 1 0 9.26 0 a4.63 4.63 0 1 0 -9.26 0zM568.87 1128.5 a4.63 4.63 0 1 0 9.26 0 a4.63 4.63 0 1 0 -9.26 0zM161.87 980.5 a4.63 4.63 0 1 0 9.26 0 a4.63 4.63 0 1 0 -9.26 0zM605.87 1202.5 a4.63 4.63 0 1 0 9.26 0 a4.63 4.63 0 1 0 -9.26 0z" fill="black"></path><path d="M1493.87 425.5 a4.63 4.63 0 1 0 9.26 0 a4.63 4.63 0 1 0 -9.26 0zM975.87 536.5 a4.63 4.63 0 1 0 9.26 0 a4.63 4.63 0 1 0 -9.26 0zM420.87 499.5 a4.63 4.63 0 1 0 9.26 0 a4.63 4.63 0 1 0 -9.26 0zM1419.87 499.5 a4.63 4.63 0 1 0 9.26 0 a4.63 4.63 0 1 0 -9.26 0zM827.87 573.5 a4.63 4.63 0 1 0 9.26 0 a4.63 4.63 0 1 0 -9.26 0zM753.87 462.5 a4.63 4.63 0 1 0 9.26 0 a4.63 4.63 0 1 0 -9.26 0zM383.87 499.5 a4.63 4.63 0 1 0 9.26 0 a4.63 4.63 0 1 0 -9.26 0zM1419.87 536.5 a4.63 4.63 0 1 0 9.26 0 a4.63 4.63 0 1 0 -9.26 0zM1456.87 425.5 a4.63 4.63 0 1 0 9.26 0 a4.63 4.63 0 1 0 -9.26 0zM309.87 499.5 a4.63 4.63 0 1 0 9.26 0 a4.63 4.63 0 1 0 -9.26 0zM1308.87 499.5 a4.63 4.63 0 1 0 9.26 0 a4.63 4.63 0 1 0 -9.26 0z" fill="black"></path><path d="M124.87 1017.5 a4.63 4.63 0 1 0 9.26 0 a4.63 4.63 0 1 0 -9.26 0z" fill="black"></path><path d="M1382.87 425.5 a4.63 4.63 0 1 0 9.26 0 a4.63 4.63 0 1 0 -9.26 0zM1271.87 425.5 a4.63 4.63 0 1 0 9.26 0 a4.63 4.63 0 1 0 -9.26 0zM272.87 499.5 a4.63 4.63 0 1 0 9.26 0 a4.63 4.63 0 1 0 -9.26 0zM198.87 499.5 a4.63 4.63 0 1 0 9.26 0 a4.63 4.63 0 1 0 -9.26 0zM531.87 462.5 a4.63 4.63 0 1 0 9.26 0 a4.63 4.63 0 1 0 -9.26 0zM1160.87 425.5 a4.63 4.63 0 1 0 9.26 0 a4.63 4.63 0 1 0 -9.26 0zM1086.87 425.5 a4.63 4.63 0 1 0 9.26 0 a4.63 4.63 0 1 0 -9.26 0z" fill="black"></path><path d="M346.87 1054.5 a4.63 4.63 0 1 0 9.26 0 a4.63 4.63 0 1 0 -9.26 0z" fill="black"></path><path d="M1678.87 425.5 a4.63 4.63 0 1 0 9.26 0 a4.63 4.63 0 1 0 -9.26 0zM1012.87 388.5 a4.63 4.63 0 1 0 9.26 0 a4.63 4.63 0 1 0 -9.26 0zM1271.87 351.5 a4.63 4.63 0 1 0 9.26 0 a4.63 4.63 0 1 0 -9.26 0zM790.87 351.5 a4.63 4.63 0 1 0 9.26 0 a4.63 4.63 0 1 0 -9.26 0zM901.87 351.5 a4.63 4.63 0 1 0 9.26 0 a4.63 4.63 0 1 0 -9.26 0zM1826.87 351.5 a4.63 4.63 0 1 0 9.26 0 a4.63 4.63 0 1 0 -9.26 0zM1345.87 351.5 a4.63 4.63 0 1 0 9.26 0 a4.63 4.63 0 1 0 -9.26 0zM1604.87 351.5 a4.63 4.63 0 1 0 9.26 0 a4.63 4.63 0 1 0 -9.26 0zM1789.87 388.5 a4.63 4.63 0 1 0 9.26 0 a4.63 4.63 0 1 0 -9.26 0zM1678.87 462.5 a4.63 4.63 0 1 0 9.26 0 a4.63 4.63 0 1 0 -9.26 0zM642.87 351.5 a4.63 4.63 0 1 0 9.26 0 a4.63 4.63 0 1 0 -9.26 0zM1493.87 277.5 a4.63 4.63 0 1 0 9.26 0 a4.63 4.63 0 1 0 -9.26 0z" fill="black"></path><path d="M161.87 1091.5 a4.63 4.63 0 1 0 9.26 0 a4.63 4.63 0 1 0 -9.26 0z" fill="black"></path><path d="M1012.87 277.5 a4.63 4.63 0 1 0 9.26 0 a4.63 4.63 0 1 0 -9.26 0zM864.87 351.5 a4.63 4.63 0 1 0 9.26 0 a4.63 4.63 0 1 0 -9.26 0zM642.87 314.5 a4.63 4.63 0 1 0 9.26 0 a4.63 4.63 0 1 0 -9.26 0zM420.87 351.5 a4.63 4.63 0 1 0 9.26 0 a4.63 4.63 0 1 0 -9.26 0zM753.87 314.5 a4.63 4.63 0 1 0 9.26 0 a4.63 4.63 0 1 0 -9.26 0zM1123.87 314.5 a4.63 4.63 0 1 0 9.26 0 a4.63 4.63 0 1 0 -9.26 0zM716.87 314.5 a4.63 4.63 0 1 0 9.26 0 a4.63 4.63 0 1 0 -9.26 0zM531.87 351.5 a4.63 4.63 0 1 0 9.26 0 a4.63 4.63 0 1 0 -9.26 0z" fill="black"></path><path d="M309.87 1091.5 a4.63 4.63 0 1 0 9.26 0 a4.63 4.63 0 1 0 -9.26 0zM198.87 1165.5 a4.63 4.63 0 1 0 9.26 0 a4.63 4.63 0 1 0 -9.26 0zM87.87 1165.5 a4.63 4.63 0 1 0 9.26 0 a4.63 4.63 0 1 0 -9.26 0zM420.87 1128.5 a4.63 4.63 0 1 0 9.26 0 a4.63 4.63 0 1 0 -9.26 0z" fill="black"></path><path d="M1678.87 203.5 a4.63 4.63 0 1 0 9.26 0 a4.63 4.63 0 1 0 -9.26 0zM420.87 277.5 a4.63 4.63 0 1 0 9.26 0 a4.63 4.63 0 1 0 -9.26 0zM309.87 277.5 a4.63 4.63 0 1 0 9.26 0 a4.63 4.63 0 1 0 -9.26 0zM1604.87 166.5 a4.63 4.63 0 1 0 9.26 0 a4.63 4.63 0 1 0 -9.26 0zM1345.87 166.5 a4.63 4.63 0 1 0 9.26 0 a4.63 4.63 0 1 0 -9.26 0zM790.87 203.5 a4.63 4.63 0 1 0 9.26 0 a4.63 4.63 0 1 0 -9.26 0zM901.87 203.5 a4.63 4.63 0 1 0 9.26 0 a4.63 4.63 0 1 0 -9.26 0zM161.87 314.5 a4.63 4.63 0 1 0 9.26 0 a4.63 4.63 0 1 0 -9.26 0zM1530.87 240.5 a4.63 4.63 0 1 0 9.26 0 a4.63 4.63 0 1 0 -9.26 0zM1826.87 129.5 a4.63 4.63 0 1 0 9.26 0 a4.63 4.63 0 1 0 -9.26 0zM1234.87 277.5 a4.63 4.63 0 1 0 9.26 0 a4.63 4.63 0 1 0 -9.26 0zM864.87 166.5 a4.63 4.63 0 1 0 9.26 0 a4.63 4.63 0 1 0 -9.26 0z" fill="black"></path></mask></defs></svg>