<svg xmlns="http://www.w3.org/2000/svg" version="1.1" xmlns:xlink="http://www.w3.org/1999/xlink" xmlns:svgjs="http://svgjs.com/svgjs" width="680" height="320" preserveAspectRatio="none" viewBox="0 0 680 320"><g mask="url(&quot;#SvgjsMask10203&quot;)" fill="none"><rect width="680" height="320" x="0" y="0" fill="rgba(115, 45, 77, 1)"></rect><path d="M128.68 204.11a5.6 5.6 0 1 0 11.2-0.25 5.6 5.6 0 1 0-11.2 0.25zM144.68 203.75a5.6 5.6 0 1 0 11.2-0.24 5.6 5.6 0 1 0-11.2 0.24zM160.68 203.4a5.6 5.6 0 1 0 11.19-0.24 5.6 5.6 0 1 0-11.19 0.24zM176.67 203.05a5.6 5.6 0 1 0 11.2-0.25 5.6 5.6 0 1 0-11.2 0.25zM97.04 220.81a5.6 5.6 0 1 0 11.2-0.25 5.6 5.6 0 1 0-11.2 0.25zM113.04 220.45a5.6 5.6 0 1 0 11.2-0.24 5.6 5.6 0 1 0-11.2 0.24zM129.04 220.1a5.6 5.6 0 1 0 11.19-0.24 5.6 5.6 0 1 0-11.19 0.24zM145.03 219.75a5.6 5.6 0 1 0 11.2-0.25 5.6 5.6 0 1 0-11.2 0.25z" stroke="rgba(191, 94, 73, 1)" stroke-width="1"></path><rect width="60" height="60" clip-path="url(&quot;#SvgjsClipPath10204&quot;)" x="354.1" y="44.8" fill="url(#SvgjsPattern10205)" transform="rotate(27.7, 384.1, 74.8)"></rect><rect width="140.04" height="140.04" clip-path="url(&quot;#SvgjsClipPath10206&quot;)" x="149.33" y="-2.47" fill="url(#SvgjsPattern10207)" transform="rotate(89.85, 219.35, 67.55)"></rect><rect width="79" height="79" clip-path="url(&quot;#SvgjsClipPath10208&quot;)" x="65.57" y="204.75" fill="url(#SvgjsPattern10209)" transform="rotate(286.97, 105.07, 244.25)"></rect><path d="M636.04 194.81 L648.9399999999999 193.59L648.295775915441 200.00577591544095z" fill="rgba(191, 94, 73, 1)"></path><rect width="60" height="60" clip-path="url(&quot;#SvgjsClipPath10210&quot;)" x="454.54" y="256.85" fill="url(#SvgjsPattern10211)" transform="rotate(125.84, 484.54, 286.85)"></rect><circle r="26.666666666666668" cx="46.85" cy="253.44" fill="rgba(45, 31, 64, 1)"></circle><circle r="26.666666666666668" cx="368.99" cy="105.23" fill="rgba(166, 68, 86, 1)"></circle><circle r="39.50061216195919" cx="267.82" cy="213.22" stroke="rgba(166, 68, 86, 1)" stroke-width="2.01" stroke-dasharray="3, 2"></circle><rect width="140.4" height="140.4" clip-path="url(&quot;#SvgjsClipPath10212&quot;)" x="226.39" y="205.3" fill="url(#SvgjsPattern10213)" transform="rotate(225.26, 296.59, 275.5)"></rect></g><defs><mask id="SvgjsMask10203"><rect width="680" height="320" fill="#ffffff"></rect></mask><pattern x="0" y="0" width="60" height="6" patternUnits="userSpaceOnUse" id="SvgjsPattern10205"><rect width="60" height="3" x="0" y="0" fill="rgba(191, 94, 73, 1)"></rect><rect width="60" height="3" x="0" y="3" fill="rgba(0, 0, 0, 0)"></rect></pattern><clipPath id="SvgjsClipPath10204"><circle r="15" cx="384.1" cy="74.8"></circle></clipPath><pattern x="0" y="0" width="140.04" height="7.78" patternUnits="userSpaceOnUse" id="SvgjsPattern10207"><rect width="140.04" height="3.89" x="0" y="0" fill="rgba(191, 94, 73, 1)"></rect><rect width="140.04" height="3.89" x="0" y="3.89" fill="rgba(0, 0, 0, 0)"></rect></pattern><clipPath id="SvgjsClipPath10206"><circle r="35.01" cx="219.35" cy="67.55"></circle></clipPath><pattern x="0" y="0" width="79" height="7.9" patternUnits="userSpaceOnUse" id="SvgjsPattern10209"><rect width="79" height="3.95" x="0" y="0" fill="rgba(191, 94, 73, 1)"></rect><rect width="79" height="3.95" x="0" y="3.95" fill="rgba(0, 0, 0, 0)"></rect></pattern><clipPath id="SvgjsClipPath10208"><circle r="19.75" cx="105.07" cy="244.25"></circle></clipPath><pattern x="0" y="0" width="6" height="6" patternUnits="userSpaceOnUse" id="SvgjsPattern10211"><path d="M0 6L3 0L6 6" stroke="rgba(191, 94, 73, 1)" fill="none"></path></pattern><clipPath id="SvgjsClipPath10210"><circle r="15" cx="484.54" cy="286.85"></circle></clipPath><pattern x="0" y="0" width="11.7" height="11.7" patternUnits="userSpaceOnUse" id="SvgjsPattern10213"><path d="M5.85 1L5.85 10.7M1 5.85L10.7 5.85" stroke="rgba(191, 94, 73, 1)" fill="none" stroke-width="2.05"></path></pattern><clipPath id="SvgjsClipPath10212"><circle r="35.1" cx="296.59" cy="275.5"></circle></clipPath></defs></svg>