<svg xmlns="http://www.w3.org/2000/svg" version="1.1" xmlns:xlink="http://www.w3.org/1999/xlink" xmlns:svgjs="http://svgjs.com/svgjs" width="2560" height="1080" preserveAspectRatio="none" viewBox="0 0 2560 1080"><g mask="url(&quot;#SvgjsMask1051&quot;)" fill="none"><rect width="2560" height="1080" x="0" y="0" fill="rgba(45, 31, 64, 1)"></rect><path d="M0,644.91C133.164,644.601,274.024,672.399,389.462,606.015C506.795,538.541,575.65,411.465,625.065,285.458C672.646,164.129,674.53,34.391,664.591,-95.554C654.034,-233.571,659.353,-388.252,565.735,-490.212C472.525,-591.729,314.935,-583.42,182.292,-620.831C51.305,-657.774,-74.524,-734.934,-208.017,-708.44C-345.784,-681.098,-477.512,-596.607,-548.985,-475.698C-617.144,-360.395,-552.719,-214.652,-577.697,-83.06C-604.4,57.618,-737.38,181.446,-699.956,319.659C-662.364,458.493,-521.064,547.214,-390.625,607.825C-269.559,664.081,-133.498,645.22,0,644.91" fill="#1d142a"></path><path d="M2560 1887.2350000000001C2769.675 1901.588 2970.504 2102.268 3163.497 2019.06 3352.9880000000003 1937.362 3380.73 1681.643 3469.224 1495.229 3559.184 1305.727 3739.114 1121.059 3686.152 918.0840000000001 3632.718 713.297 3372.761 653.0409999999999 3213.196 514.002 3080.538 398.408 2997.508 214.25900000000001 2827.2889999999998 169.69799999999998 2658.099 125.40599999999995 2487.625 215.84900000000005 2325.579 281.63599999999997 2177.634 341.698 2032.8049999999998 411.92600000000004 1929.9009999999998 534.016 1827.836 655.11 1810.067 816.807 1750.743 963.646 1669.533 1164.658 1461.741 1346.714 1516.855 1556.388 1570.7089999999998 1761.269 1805.435 1875.876 2007.363 1939.92 2187.398 1997.02 2371.568 1874.336 2560 1887.2350000000001" fill="#3d2a56"></path></g><defs><mask id="SvgjsMask1051"><rect width="2560" height="1080" fill="#ffffff"></rect></mask></defs></svg>