<svg xmlns="http://www.w3.org/2000/svg" version="1.1" xmlns:xlink="http://www.w3.org/1999/xlink" xmlns:svgjs="http://svgjs.com/svgjs" width="2560" height="1080" preserveAspectRatio="none" viewBox="0 0 2560 1080"><g mask="url(&quot;#SvgjsMask1091&quot;)" fill="none"><rect width="2560" height="1080" x="0" y="0" fill="rgba(45, 31, 64, 1)"></rect><g transform="translate(0, 0)" stroke-linecap="round"><path d="M488 483.37 L488 596.63" stroke-width="16.5" stroke="rgba(191, 94, 73, 1)"></path><path d="M510 280.32 L510 799.67" stroke-width="16.5" stroke="rgba(242, 226, 220, 1)"></path><path d="M532 452.83 L532 627.17" stroke-width="16.5" stroke="rgba(242, 226, 220, 1)"></path><path d="M554 221.62 L554 858.38" stroke-width="16.5" stroke="rgba(191, 94, 73, 1)"></path><path d="M576 335.9 L576 744.1" stroke-width="16.5" stroke="rgba(191, 94, 73, 1)"></path><path d="M598 224.38 L598 855.63" stroke-width="16.5" stroke="rgba(191, 94, 73, 1)"></path><path d="M620 469.44 L620 610.57" stroke-width="16.5" stroke="rgba(242, 226, 220, 1)"></path><path d="M642 234.67 L642 845.33" stroke-width="16.5" stroke="rgba(191, 94, 73, 1)"></path><path d="M664 379.41 L664 700.59" stroke-width="16.5" stroke="rgba(191, 94, 73, 1)"></path><path d="M686 379.34 L686 700.66" stroke-width="16.5" stroke="rgba(242, 226, 220, 1)"></path><path d="M708 407.06 L708 672.93" stroke-width="16.5" stroke="rgba(191, 94, 73, 1)"></path><path d="M730 313.57 L730 766.43" stroke-width="16.5" stroke="rgba(191, 94, 73, 1)"></path><path d="M752 311.9 L752 768.1" stroke-width="16.5" stroke="rgba(191, 94, 73, 1)"></path><path d="M774 411.79 L774 668.21" stroke-width="16.5" stroke="rgba(242, 226, 220, 1)"></path><path d="M796 423.48 L796 656.52" stroke-width="16.5" stroke="rgba(191, 94, 73, 1)"></path><path d="M818 237.4 L818 842.6" stroke-width="16.5" stroke="rgba(242, 226, 220, 1)"></path><path d="M840 390.78 L840 689.22" stroke-width="16.5" stroke="rgba(242, 226, 220, 1)"></path><path d="M862 264.83 L862 815.17" stroke-width="16.5" stroke="rgba(242, 226, 220, 1)"></path><path d="M884 476.13 L884 603.87" stroke-width="16.5" stroke="rgba(242, 226, 220, 1)"></path><path d="M906 224.92 L906 855.09" stroke-width="16.5" stroke="rgba(242, 226, 220, 1)"></path><path d="M928 353.56 L928 726.44" stroke-width="16.5" stroke="rgba(191, 94, 73, 1)"></path><path d="M950 259.65 L950 820.35" stroke-width="16.5" stroke="rgba(191, 94, 73, 1)"></path><path d="M972 342.88 L972 737.12" stroke-width="16.5" stroke="rgba(242, 226, 220, 1)"></path><path d="M994 338.24 L994 741.76" stroke-width="16.5" stroke="rgba(242, 226, 220, 1)"></path><path d="M1016 221.7 L1016 858.3" stroke-width="16.5" stroke="rgba(191, 94, 73, 1)"></path><path d="M1038 261.2 L1038 818.8" stroke-width="16.5" stroke="rgba(191, 94, 73, 1)"></path><path d="M1060 302.39 L1060 777.61" stroke-width="16.5" stroke="rgba(242, 226, 220, 1)"></path><path d="M1082 231.96 L1082 848.04" stroke-width="16.5" stroke="rgba(191, 94, 73, 1)"></path><path d="M1104 477.29 L1104 602.71" stroke-width="16.5" stroke="rgba(242, 226, 220, 1)"></path><path d="M1126 430.02 L1126 649.98" stroke-width="16.5" stroke="rgba(242, 226, 220, 1)"></path><path d="M1148 281.02 L1148 798.98" stroke-width="16.5" stroke="rgba(242, 226, 220, 1)"></path><path d="M1170 383.92 L1170 696.08" stroke-width="16.5" stroke="rgba(242, 226, 220, 1)"></path><path d="M1192 231.4 L1192 848.6" stroke-width="16.5" stroke="rgba(191, 94, 73, 1)"></path><path d="M1214 280.64 L1214 799.36" stroke-width="16.5" stroke="rgba(191, 94, 73, 1)"></path><path d="M1236 438.55 L1236 641.45" stroke-width="16.5" stroke="rgba(242, 226, 220, 1)"></path><path d="M1258 273.61 L1258 806.39" stroke-width="16.5" stroke="rgba(242, 226, 220, 1)"></path><path d="M1280 319.61 L1280 760.39" stroke-width="16.5" stroke="rgba(191, 94, 73, 1)"></path><path d="M1302 294.89 L1302 785.11" stroke-width="16.5" stroke="rgba(242, 226, 220, 1)"></path><path d="M1324 440.14 L1324 639.86" stroke-width="16.5" stroke="rgba(242, 226, 220, 1)"></path><path d="M1346 229.01 L1346 850.99" stroke-width="16.5" stroke="rgba(191, 94, 73, 1)"></path><path d="M1368 341.76 L1368 738.24" stroke-width="16.5" stroke="rgba(191, 94, 73, 1)"></path><path d="M1390 258.93 L1390 821.07" stroke-width="16.5" stroke="rgba(242, 226, 220, 1)"></path><path d="M1412 221.33 L1412 858.67" stroke-width="16.5" stroke="rgba(191, 94, 73, 1)"></path><path d="M1434 321.6 L1434 758.4" stroke-width="16.5" stroke="rgba(191, 94, 73, 1)"></path><path d="M1456 421.29 L1456 658.71" stroke-width="16.5" stroke="rgba(191, 94, 73, 1)"></path><path d="M1478 249.59 L1478 830.41" stroke-width="16.5" stroke="rgba(191, 94, 73, 1)"></path><path d="M1500 500.06 L1500 579.93" stroke-width="16.5" stroke="rgba(191, 94, 73, 1)"></path><path d="M1522 426.62 L1522 653.38" stroke-width="16.5" stroke="rgba(191, 94, 73, 1)"></path><path d="M1544 367.56 L1544 712.44" stroke-width="16.5" stroke="rgba(242, 226, 220, 1)"></path><path d="M1566 402.87 L1566 677.13" stroke-width="16.5" stroke="rgba(242, 226, 220, 1)"></path><path d="M1588 375.56 L1588 704.44" stroke-width="16.5" stroke="rgba(191, 94, 73, 1)"></path><path d="M1610 226.87 L1610 853.13" stroke-width="16.5" stroke="rgba(191, 94, 73, 1)"></path><path d="M1632 238.52 L1632 841.48" stroke-width="16.5" stroke="rgba(242, 226, 220, 1)"></path><path d="M1654 488.95 L1654 591.05" stroke-width="16.5" stroke="rgba(191, 94, 73, 1)"></path><path d="M1676 268 L1676 812" stroke-width="16.5" stroke="rgba(242, 226, 220, 1)"></path><path d="M1698 372.34 L1698 707.66" stroke-width="16.5" stroke="rgba(242, 226, 220, 1)"></path><path d="M1720 486.72 L1720 593.28" stroke-width="16.5" stroke="rgba(242, 226, 220, 1)"></path><path d="M1742 251.11 L1742 828.89" stroke-width="16.5" stroke="rgba(242, 226, 220, 1)"></path><path d="M1764 283.65 L1764 796.35" stroke-width="16.5" stroke="rgba(242, 226, 220, 1)"></path><path d="M1786 329.47 L1786 750.53" stroke-width="16.5" stroke="rgba(191, 94, 73, 1)"></path><path d="M1808 501.75 L1808 578.25" stroke-width="16.5" stroke="rgba(191, 94, 73, 1)"></path><path d="M1830 375.79 L1830 704.21" stroke-width="16.5" stroke="rgba(242, 226, 220, 1)"></path><path d="M1852 359.75 L1852 720.25" stroke-width="16.5" stroke="rgba(242, 226, 220, 1)"></path><path d="M1874 366.51 L1874 713.49" stroke-width="16.5" stroke="rgba(242, 226, 220, 1)"></path><path d="M1896 493.24 L1896 586.76" stroke-width="16.5" stroke="rgba(242, 226, 220, 1)"></path><path d="M1918 315.79 L1918 764.21" stroke-width="16.5" stroke="rgba(242, 226, 220, 1)"></path><path d="M1940 405.63 L1940 674.38" stroke-width="16.5" stroke="rgba(242, 226, 220, 1)"></path><path d="M1962 403.51 L1962 676.49" stroke-width="16.5" stroke="rgba(242, 226, 220, 1)"></path><path d="M1984 232.51 L1984 847.49" stroke-width="16.5" stroke="rgba(242, 226, 220, 1)"></path><path d="M2006 498.86 L2006 581.14" stroke-width="16.5" stroke="rgba(242, 226, 220, 1)"></path><path d="M2028 251.53 L2028 828.47" stroke-width="16.5" stroke="rgba(242, 226, 220, 1)"></path><path d="M2050 411.86 L2050 668.14" stroke-width="16.5" stroke="rgba(242, 226, 220, 1)"></path><path d="M2072 332.08 L2072 747.92" stroke-width="16.5" stroke="rgba(191, 94, 73, 1)"></path></g></g><defs><mask id="SvgjsMask1091"><rect width="2560" height="1080" fill="#ffffff"></rect></mask></defs></svg>